<?xml version="1.0" encoding="UTF-8"?>
<svg width="77px" height="74px" viewBox="0 0 77 74" version="1.1" xmlns="http://www.w3.org/2000/svg" xmlns:xlink="http://www.w3.org/1999/xlink">
    <!-- Generator: Sketch 52.6 (67491) - http://www.bohemiancoding.com/sketch -->
    <title>bird</title>
    <desc>Created with Sketch.</desc>
    <g id="Page-1" stroke="none" stroke-width="1" fill="none" fill-rule="evenodd">
        <g id="bird" fill="#000000">
            <path d="M76.8097555,42.0031579 C75.5094244,26.8915789 65.5068772,9.02315789 50.0029292,5.85789474 C50.1029547,5.85789474 50.1029547,5.85789474 50.2029801,5.75578947 C51.7033622,5.24526316 53.5038207,5.14315789 54.9041773,4.32631579 C55.6043556,3.91789474 55.704381,2.59052632 54.9041773,2.18210526 C54.8041518,1.77368421 54.6041009,1.46736842 54.1039735,1.36526316 C37.9998726,-2.41263158 19.9952878,1.77368421 8.89246052,14.9452632 C-1.31013754,26.9936842 -3.31064697,45.1684211 6.1917728,58.1357895 C16.3943709,72.0221053 34.4989812,75.5957895 50.4030311,73.1452632 C57.4048141,72.0221053 64.8066989,69.5715789 70.0080234,64.4663158 C75.9095262,58.5442105 77.5099338,50.0694737 76.8097555,42.0031579 Z M73.0087876,48.64 C70.8082272,69.7757895 43.9013754,73.1452632 27.6972491,68.6526316 C8.79243505,63.3431579 -2.5104432,43.4326316 6.49184921,24.6452632 C14.3938614,8.10421053 32.0983698,2.38631579 48.902649,3.40736842 C47.6023179,3.91789474 46.2019613,4.53052632 45.4017575,5.55157895 C45.2017066,5.75578947 45.1016811,5.96 45.0016556,6.16421053 C44.8016047,6.87894737 45.1016811,7.69578947 45.9018849,8.00210526 C54.4040499,10.9631579 61.8059348,14.8431579 66.8072084,22.7052632 C71.5084055,30.1589474 73.9090168,39.8589474 73.0087876,48.64 Z" id="Shape" fill-rule="nonzero"></path>
            <path d="M45.501783,47.8231579 C44.4015028,49.5589474 44.1014264,51.8052632 43.3012226,53.6431579 C42.4009934,55.7873684 41.4007387,57.8294737 40.0003821,59.7694737 C39.0001274,61.1989474 39.1001528,60.5863158 38.2999491,59.3610526 C37.6997962,58.4421053 37.1996689,57.5231579 36.599516,56.5021053 C35.2991849,54.2557895 33.9988538,52.1115789 32.6985227,49.8652632 C32.0983698,48.9463158 30.4979623,49.5589474 30.8980642,50.6821053 C32.1983953,54.0515789 33.7988029,57.2168421 35.4992359,60.3821053 C36.4994906,62.22 37.7998217,64.6705263 40.200433,63.6494737 C42.2009424,62.8326316 43.7013245,59.5652632 44.6015537,57.7273684 C46.0019103,55.0726316 48.0024198,51.4989474 47.8023688,48.4357895 C47.8023688,47.2105263 46.2019613,46.7 45.501783,47.8231579 Z" id="Path"></path>
            <path d="M22.0958227,35.7747368 C20.7954916,35.7747368 19.5951859,36.5915789 18.9950331,37.7147368 C18.3948803,39.0421053 18.6949567,40.5736842 19.7952369,41.5947368 C20.5954407,42.3094737 21.6957208,42.5136842 22.6959755,42.3094737 C23.3961538,42.3094737 24.0963321,42.1052632 24.5964595,41.5947368 C25.4966887,40.7778947 25.7967652,39.2463158 25.2966378,38.1231579 C24.7965104,36.7957895 23.4961793,35.7747368 22.0958227,35.7747368 Z" id="Path"></path>
            <path d="M56.4045593,35.06 C54.3040245,34.0389474 51.5033113,35.4684211 51.5033113,37.9189474 C51.5033113,38.6336842 51.7033622,39.3484211 52.1034641,39.8589474 C52.1034641,39.9610526 52.1034641,39.9610526 52.2034896,40.0631579 C53.1037188,42.1052632 56.2045084,41.9010526 57.4048141,40.3694737 C58.8051707,38.8378947 58.4050688,36.0810526 56.4045593,35.06 Z" id="Path"></path>
        </g>
    </g>
</svg>