<?xml version="1.0" encoding="UTF-8"?>
<svg width="93px" height="83px" viewBox="0 0 93 83" version="1.1" xmlns="http://www.w3.org/2000/svg" xmlns:xlink="http://www.w3.org/1999/xlink">
    <!-- Generator: Sketch 52.6 (67491) - http://www.bohemiancoding.com/sketch -->
    <title>cat</title>
    <desc>Created with Sketch.</desc>
    <g id="Page-1" stroke="none" stroke-width="1" fill="none" fill-rule="evenodd">
        <g id="cat" fill="#000000">
            <path d="M92.7628803,63.5851393 C90.3491648,61.0619195 87.2314489,59.4470588 83.8120186,58.5386997 C84.314876,55.5108359 84.4154475,52.2811146 84.2143046,49.152322 C83.8120186,44.7114551 82.7057324,40.0687307 80.7948743,35.6278638 C87.030306,27.3517028 88.6394496,16.1486068 88.6394496,6.05572755 C88.6394496,5.04643963 87.8348778,4.23900929 86.829163,4.23900929 C77.375444,4.23900929 68.7262968,8.57894737 61.8874363,14.9374613 C60.3788641,14.3318885 58.8702919,13.8272446 57.2611482,13.5244582 C57.3617197,13.5244582 57.3617197,13.5244582 57.4622912,13.4235294 C58.9708634,12.9188854 60.78115,12.8179567 62.1891507,12.0105263 C62.893151,11.6068111 62.9937225,10.2947368 62.1891507,9.89102167 C62.0885792,9.4873065 61.8874363,9.18452012 61.3845789,9.08359133 C52.5342887,7.06501548 43.0805697,7.36780186 34.531994,10.193808 C31.2131352,6.45944272 26.9891331,3.93622291 22.2622736,2.42229102 C19.0439863,1.3120743 11.0988395,-1.21114551 7.88055214,0.807430341 C4.76283629,2.7250774 6.47255143,8.78080495 6.97540883,11.7077399 C7.77998066,17.1578947 9.18798136,23.1126935 12.0039828,28.0582043 C6.170837,38.1510836 5.16512221,50.6662539 10.5959821,61.0619195 C6.37197995,63.4842105 2.65083524,66.9157895 0.237119747,70.9529412 C-0.466880605,72.0631579 1.14226306,73.2743034 2.04740637,72.3659443 C5.36626517,68.9343653 8.68512397,66.1083591 12.3056972,63.8879257 C12.6074116,64.3925697 12.9091261,64.7962848 13.2108405,65.3009288 C14.3171268,66.8148607 15.5239845,68.126935 16.8314138,69.4390093 C14.7194127,72.3659443 13.0096976,75.393808 11.5011254,78.6235294 C10.8976965,80.0365325 12.8085546,81.247678 13.6131264,79.8346749 C15.2222701,76.8068111 17.0325567,74.0817337 19.0439863,71.4575851 C29.5034201,80.0365325 44.2874275,82.1560372 57.6634341,80.1374613 C64.7034377,79.0272446 72.1457271,76.6049536 77.375444,71.5585139 C77.375444,71.5585139 77.4760155,71.4575851 77.4760155,71.4575851 C77.6771584,71.6594427 77.9788729,71.8613003 78.1800158,71.9622291 C82.001732,75.0910217 85.1194479,78.825387 88.2371637,82.6606811 C89.0417355,83.5690402 90.4497362,82.3578947 89.8463074,81.4495356 C87.5331634,77.3114551 83.8120186,72.8705882 79.3868736,69.2371517 C81.0965887,66.9157895 82.3034465,64.2916409 83.1080183,61.5665635 C85.9240197,62.1721362 88.7400211,63.2823529 91.5560225,65.4018576 C92.4611658,65.8055728 93.4668806,64.3925697 92.7628803,63.5851393 Z M80.2920169,55.7126935 C80.1914454,56.419195 80.0908739,57.0247678 79.9903024,57.7312693 C75.2634429,57.1256966 70.3354405,57.6303406 66.1114384,58.7405573 C65.1057236,59.0433437 65.3068665,60.4563467 66.3125813,60.5572755 C70.8382979,60.7591331 75.0623,60.355418 79.0851591,60.6582043 C78.3811588,62.777709 77.2748725,64.695356 75.9674433,66.4111455 C72.548013,64.0897833 68.8268683,62.4749226 65.3068665,61.8693498 C64.3011517,61.6674923 63.6977229,62.8786378 64.6028662,63.4842105 C67.6200106,65.4018576 70.8382979,66.9157895 73.8554422,68.7325077 C64.4017232,77.7151703 46.6005715,78.7244582 34.6325655,75.393808 C29.5034201,73.980805 24.9777035,71.5585139 21.2565588,68.3287926 C23.3685599,65.8055728 25.5811324,63.3832817 27.8942764,60.9609907 C28.5982768,60.2544892 27.6931335,59.0433437 26.7879902,59.5479876 C23.8714173,61.3647059 21.3571303,63.5851393 19.0439863,66.2092879 C17.7365571,64.7962848 16.5296993,63.3832817 15.423413,61.7684211 C18.0382715,60.4563467 20.7537014,59.2452012 23.8714173,58.2359133 C24.6759891,57.9331269 24.5754176,56.5201238 23.6702743,56.6210526 C20.3514155,56.8229102 17.0325567,57.7312693 13.8142694,59.1442724 C9.4896958,51.1708978 8.78569545,41.380805 13.4119835,31.7925697 C13.7136979,31.2879257 13.9148409,30.7832817 14.2165553,30.177709 C14.8199842,30.0767802 15.423413,29.5721362 15.1216986,28.8656347 C14.0154123,25.0303406 12.3056972,21.2959752 11.2999824,17.4606811 C10.5959821,14.8365325 8.38340953,7.97337461 9.18798136,4.84458204 C12.6074116,7.36780186 16.0268419,9.89102167 19.1445578,12.9188854 C22.4634166,16.047678 24.8771321,19.6811146 27.7937049,23.1126935 C28.4977053,23.9201238 29.6039916,22.9108359 29.2017056,22.0024768 C25.8828468,14.7356037 19.0439863,7.67058824 12.0039828,3.43157895 C15.3228416,3.73436533 20.9548444,5.95479876 22.3628451,6.56037152 C26.3857042,8.27616099 29.8051345,10.7993808 32.7217074,14.130031 C33.9285651,15.4421053 35.4371373,14.5337461 35.8394232,13.2216718 C42.2759979,11.203096 49.2154299,10.4965944 56.0542905,10.9003096 C54.7468613,11.4049536 53.3388606,12.0105263 52.5342887,13.0198142 C52.3331458,13.2216718 52.2325743,13.4235294 52.1320028,13.625387 C51.9308599,14.3318885 52.2325743,15.1393189 53.0371461,15.4421053 C55.3502901,16.2495356 57.5628627,17.0569659 59.6748637,18.0662539 C59.9765782,19.1764706 61.4851503,19.9839009 62.6920081,18.974613 C68.6257253,13.8272446 74.6600141,9.68916409 82.1023035,8.1752322 C79.688588,9.89102167 77.4760155,12.0105263 75.6657289,13.8272446 C72.4474415,17.0569659 68.9274398,21.0941176 67.3182961,25.4340557 C66.9160102,26.5442724 68.5251539,27.4526316 69.3297257,26.6452012 C72.3468701,23.3145511 74.5594426,19.2773994 77.7777299,16.047678 C79.9903024,13.7263158 82.7057324,11.9095975 85.2200193,9.89102167 C85.0188764,19.1764706 81.3983031,27.3517028 77.4760155,35.9306502 C77.174301,36.5362229 77.4760155,37.2427245 77.9788729,37.5455108 C77.9788729,37.5455108 77.8783014,37.6464396 77.8783014,37.6464396 C79.9903024,43.5003096 80.8954458,49.7578947 80.2920169,55.7126935 Z" id="Shape" fill-rule="nonzero"></path>
            <path d="M55.3502901,59.5479876 C54.8474327,60.6582043 54.6462898,61.8693498 53.7411465,62.777709 C52.6348602,63.8879257 50.9251451,64.2916409 49.4165729,63.8879257 C47.3045718,63.2823529 46.6005715,61.6674923 45.7959996,60.1535604 C47.3045718,59.34613 48.813144,57.7312693 48.3102866,56.2173375 C48.1091437,55.6117647 47.6062863,55.1071207 46.9022859,55.1071207 C45.4942852,55.006192 45.1925708,56.3182663 44.186856,56.923839 C43.2817127,57.428483 42.5777123,56.3182663 41.7731405,56.0154799 C41.1697116,55.8136223 40.5662828,56.3182663 40.5662828,56.923839 C40.5662828,58.2359133 41.4714261,59.4470588 42.5777123,60.0526316 C41.7731405,61.5665635 41.0691401,62.9795666 39.2588535,63.6860681 C37.1468525,64.4934985 33.1239933,63.7869969 33.1239933,60.8600619 C33.1239933,59.7498452 31.6154211,59.6489164 31.2131352,60.5572755 C29.5034201,65.0990712 33.9285651,68.2278638 38.1525673,67.2185759 C40.2645683,66.7139319 42.6782838,65.0990712 43.985713,62.9795666 C45.4942852,65.0990712 48.3102866,66.7139319 50.4222877,67.0167183 C54.4451468,67.5213622 59.6748637,63.7869969 57.6634341,59.34613 C57.0600053,58.7405573 55.7525761,58.7405573 55.3502901,59.5479876 Z" id="Path"></path>
            <path d="M26.1845613,42.2891641 C25.5811324,42.2891641 24.8771321,42.4910217 24.4748461,42.9956656 C23.0668454,44.4086687 23.6702743,46.9318885 25.3799894,47.7393189 C27.1902761,48.647678 29.5034201,47.6383901 29.905706,45.6198142 C30.106849,44.6105263 29.8051345,43.6012384 29.0005627,42.793808 C28.2965623,42.1882353 27.1902761,41.8854489 26.1845613,42.2891641 Z" id="Path"></path>
            <path d="M63.295437,45.5188854 C62.893151,45.5188854 62.5914366,45.6198142 62.2897222,45.9226006 C61.3845789,45.8216718 60.3788641,46.3263158 59.8760067,47.2346749 C59.1720063,48.3448916 59.3731493,49.7578947 60.0771496,50.7671827 C60.8817215,51.7764706 62.0885792,52.079257 63.3960084,51.8773994 C65.9102954,51.3727554 66.8154387,48.1430341 65.0051521,46.3263158 C64.6028662,45.8216718 63.9994373,45.5188854 63.295437,45.5188854 Z" id="Path"></path>
        </g>
    </g>
</svg>