<?xml version="1.0" encoding="UTF-8"?>
<svg width="77px" height="75px" viewBox="0 0 77 75" version="1.1" xmlns="http://www.w3.org/2000/svg" xmlns:xlink="http://www.w3.org/1999/xlink">
    <!-- Generator: Sketch 52.6 (67491) - http://www.bohemiancoding.com/sketch -->
    <title>chipmunk</title>
    <desc>Created with Sketch.</desc>
    <g id="Page-1" stroke="none" stroke-width="1" fill="none" fill-rule="evenodd">
        <g id="chipmunk" fill="#000000">
            <path d="M76.8097555,43.4415978 C76.3096281,38.0035252 74.7092206,32.2633375 72.1085583,26.92597 C76.8097555,22.1928328 78.5101885,12.4244431 73.308864,7.89271601 C68.5076414,3.66310401 60.6056291,5.47579486 57.1047376,10.5110472 C54.9041773,9.30258667 52.503566,8.39624124 50.0029292,7.89271601 C50.1029547,7.89271601 50.1029547,7.89271601 50.2029801,7.79201096 C51.7033622,7.28848572 53.5038207,7.18778067 54.9041773,6.38214029 C55.6043556,5.9793201 55.704381,4.67015448 54.9041773,4.26733429 C54.8041518,3.8645141 54.6041009,3.56239896 54.1039735,3.46169391 C44.4015028,1.24618286 33.9988538,1.85041315 24.7965104,5.57649991 C20.8955171,-0.767918089 11.1930464,-1.67426352 5.4915945,3.15957877 C0.990448293,6.98637058 0.590346409,17.4596955 5.99172185,20.6822571 C-1.51018849,32.3640426 -2.31039226,47.973325 6.1917728,59.4537004 C16.3943709,73.1495869 34.4989812,76.6742635 50.4030311,74.1566373 C57.4048141,73.0488818 64.8066989,70.6319607 70.0080234,65.5967083 C75.9095262,59.8565206 77.5099338,51.4980016 76.8097555,43.4415978 Z M73.0087876,50.088131 C70.8082272,70.9340758 43.9013754,74.2573424 27.6972491,69.8263203 C8.79243505,64.5896578 -2.5104432,44.9521735 6.49184921,26.4224448 C7.39207845,24.5090489 8.49235863,22.696358 9.69266429,20.9843722 C9.69266429,20.9843722 9.69266429,20.9843722 9.69266429,20.9843722 C10.0927662,20.480847 10.1927916,19.8766167 9.59263882,19.4737965 C7.29205298,17.6611056 5.4915945,14.4385441 5.39156903,11.3166876 C5.99172185,9.30258667 7.89220581,7.89271601 10.0927662,8.19483115 C12.6934284,8.59765134 14.6939379,10.7124573 15.1940652,13.3307886 C15.5941671,15.2441845 18.6949567,14.237134 17.8947529,12.2230331 C16.2943454,8.39624124 13.2935813,4.97226962 8.69240958,5.57649991 C8.69240958,5.57649991 8.69240958,5.57649991 8.69240958,5.57649991 C8.69240958,5.57649991 8.69240958,5.57649991 8.69240958,5.57649991 C13.8937341,2.85746362 19.395135,4.87156458 22.996052,9.10117658 C23.5962048,9.90681696 24.696485,9.70540686 25.3966633,9.10117658 C32.6985227,6.08002515 40.9006113,5.07297467 49.0026745,5.57649991 C47.7023434,6.08002515 46.3019868,6.68425543 45.501783,7.69130591 C45.301732,7.89271601 45.2017066,8.0941261 45.1016811,8.2955362 C44.9016302,9.00047153 45.2017066,9.80611191 46.0019103,10.1082271 C49.6028273,11.3166876 52.9036679,12.7265583 56.0044575,14.4385441 C56.5045848,15.2441845 57.604865,15.5462996 58.4050688,14.8413643 C61.5058584,11.7195078 65.9069791,6.98637058 70.4081253,10.7124573 C69.8079725,10.6117523 69.3078451,10.6117523 68.8077178,10.7124573 C65.4068518,11.2159826 62.8061895,14.0357239 61.5058584,17.0568753 C60.7056546,18.8695662 63.3063169,20.581552 64.2065461,18.6681561 C65.1067753,16.7547602 66.1070301,14.7406592 68.1075395,13.8343138 C70.0080234,13.0286734 71.2083291,13.6329037 72.5086602,14.4385441 C73.2088385,18.2653359 70.6081763,22.9984731 68.207565,25.5160993 C67.2073102,26.5231498 67.9074885,28.1344306 69.0077687,28.5372508 C72.2085838,35.1837839 73.7089659,42.8373675 73.0087876,50.088131 Z" id="Shape" fill-rule="nonzero"></path>
            <path d="M52.9036679,53.1092824 C52.503566,52.2029369 51.3032603,52.303642 50.603082,52.8071672 C48.8026235,54.418448 48.5025471,57.0367792 45.501783,56.9360742 C43.0011462,56.8353691 42.4009934,55.1233833 41.7008151,53.4113975 C41.7008151,53.2099874 41.7008151,53.0085773 41.6007896,52.8071672 C42.4009934,52.2029369 43.1011717,51.2965915 43.7013245,50.4909511 C44.9016302,48.8796704 45.6018085,47.0669795 46.4020122,45.2542887 C47.1021905,43.5423029 44.2014519,42.2331372 43.3012226,43.945123 C42.8010953,45.0528786 42.100917,46.059929 41.4007387,47.0669795 C41.0006368,47.5705048 40.7005604,48.174735 40.3004585,48.6782603 C40.200433,48.8796704 40.0003821,48.9803754 39.9003566,49.1817855 C39.2001783,48.6782603 38.1999236,48.2754401 37.4997453,47.7719149 C36.3994651,46.9662745 35.2991849,46.059929 34.0988793,45.4556988 C32.9985991,44.8514685 31.698268,46.059929 32.2984208,47.2683896 C33.19865,48.8796704 34.5990066,50.088131 35.9993632,51.0951814 C36.799567,51.6994117 37.6997962,52.5050521 38.7000509,53.0085773 C38.6000255,53.2099874 38.6000255,53.4113975 38.6000255,53.6128076 C37.6997962,55.9290237 36.599516,58.2452398 33.7988029,58.64806 C30.3979368,59.2522903 29.4977076,56.8353691 28.2974019,54.3177429 C27.9973255,53.7135127 26.8970453,53.6128076 26.5969689,54.3177429 C24.8965359,58.3459449 29.5977331,61.8706215 33.19865,61.8706215 C33.7988029,61.8706215 34.3989557,61.7699165 34.9991085,61.5685064 C35.1991594,62.1727367 35.3992104,62.7769669 35.5992613,63.3811972 C35.9993632,64.3882477 36.2994396,66.3016436 36.9996179,67.107284 C37.6997962,67.9129244 38.7000509,67.8122193 39.6002802,67.7115143 C40.9006113,67.6108092 42.3009679,67.5101042 43.601299,67.5101042 C44.6015537,67.5101042 45.4017575,66.7044638 45.4017575,65.6974133 C45.501783,64.0861326 45.8018594,62.3741468 45.9018849,60.762866 C49.7028528,60.6621609 54.7041263,57.1374843 52.9036679,53.1092824 Z M38.9001019,64.1868376 C38.5,62.877672 38.0998981,61.5685064 37.3997198,60.4607509 C38.5,59.7558155 39.4002292,58.8494701 40.1004075,57.8424196 C40.9006113,58.64806 41.8008406,59.4537004 42.8010953,59.9572256 C42.5010188,61.2663912 42.3009679,62.5755569 42.100917,63.8847225 C41.1006623,63.7840174 40.0003821,63.8847225 38.9001019,64.1868376 Z" id="Shape" fill-rule="nonzero"></path>
            <path d="M21.1955935,38.4063454 C17.8947529,37.5 14.7939633,40.9239716 16.3943709,44.0458281 C16.8944982,44.9521735 17.694702,45.6571089 18.6949567,45.959224 C19.8952624,46.5634543 21.295619,46.5634543 22.5959501,45.7578139 C25.2966378,43.743713 24.3964086,39.2119858 21.1955935,38.4063454 Z" id="Path"></path>
            <path d="M58.3050433,37.600705 C56.0044575,36.8957697 53.5038207,38.5070505 53.9039226,40.9239716 C53.8038971,41.3267918 53.7038716,41.729612 53.7038716,42.1324322 C53.7038716,44.1465331 55.5043301,45.7578139 57.4048141,45.858519 C59.2052725,45.858519 60.8056801,44.5493533 61.3058074,42.8373675 C61.9059603,40.6218565 60.4055782,38.3056404 58.3050433,37.600705 Z" id="Path"></path>
        </g>
    </g>
</svg>