<?xml version="1.0" encoding="UTF-8"?>
<svg width="70px" height="90px" viewBox="0 0 70 90" version="1.1" xmlns="http://www.w3.org/2000/svg" xmlns:xlink="http://www.w3.org/1999/xlink">
    <!-- Generator: Sketch 52.6 (67491) - http://www.bohemiancoding.com/sketch -->
    <title>dog</title>
    <desc>Created with Sketch.</desc>
    <g id="Page-1" stroke="none" stroke-width="1" fill="none" fill-rule="evenodd">
        <g id="dog" fill="#000000">
            <g id="Group">
                <circle id="Oval" cx="27.833" cy="41.623" r="3.256"></circle>
                <circle id="Oval" cx="42.167" cy="41.623" r="3.256"></circle>
                <path d="M64.428,41.618 L64.428,87.555 C64.428,88.905 65.523,90 66.873,90 C68.223,90 69.318,88.905 69.318,87.555 L69.318,41.618 L69.318,27.565 L69.318,0 C58.102,0 49.538,9.765 47.076,25.565 L22.097,25.565 C19.635,9.765 11.898,0 0.682,0 L0.682,27.565 L0.682,41.618 L0.682,87.555 C0.682,88.905 1.777,90 3.127,90 C4.477,90 5.572,88.905 5.572,87.555 L5.572,41.618 L5.572,27.565 L5.572,6.144 C11.156,9.112 15.524,15.162 17.263,26.299 C17.636,28.686 19.682,30.454 22.098,30.454 L47.077,30.454 C49.497,30.454 51.539,28.681 51.913,26.29 C53.62,15.374 58.465,9.068 64.429,6.087 L64.429,27.564 L64.429,41.618 L64.428,41.618 Z" id="Path"></path>
                <path d="M55.618,60.16 C55.828,59.2 55.908,58.15 55.468,57.27 C55.148,56.61 54.448,56.1 53.738,56.05 C53.508,56.03 53.268,56.07 53.038,56.16 C52.018,56.6 51.798,57.9 51.528,58.98 C50.658,62.47 47.428,65.47 43.838,65.32 C41.158,65.21 38.848,63.1 38.368,60.48 C37.748,57.13 40.418,55.61 42.128,53.19 C43.258,51.58 43.488,48.89 41.718,48.01 C41.118,47.72 40.418,47.71 39.748,47.71 L35.163,47.71 L34.838,47.71 L30.243,47.71 C29.573,47.71 28.883,47.72 28.273,48.01 C26.513,48.89 26.743,51.58 27.873,53.19 C29.583,55.61 32.253,57.13 31.633,60.48 C31.153,63.1 28.843,65.21 26.153,65.32 C22.563,65.47 19.343,62.47 18.473,58.98 C18.203,57.9 17.983,56.6 16.953,56.16 C16.733,56.07 16.493,56.03 16.263,56.05 C15.553,56.1 14.853,56.61 14.523,57.27 C14.093,58.15 14.173,59.2 14.383,60.16 C15.513,65.32 20.523,69.35 25.803,69.35 C26.153,73.93 24.843,78.85 26.933,82.94 C28.423,85.86 31.623,87.83 34.903,87.83 C34.936,87.83 34.966,87.826 34.997,87.823 C35.028,87.826 35.059,87.83 35.088,87.83 C38.368,87.83 41.578,85.86 43.068,82.94 C45.158,78.85 43.848,73.93 44.198,69.35 C49.478,69.35 54.488,65.32 55.618,60.16 Z M40.078,78.67 C40.078,81.394 37.878,83.611 35.163,83.652 L35.163,83.63 C35.104,83.637 35.053,83.643 35.001,83.649 C34.946,83.642 34.89,83.636 34.838,83.63 L34.838,83.652 C32.113,83.611 29.913,81.394 29.913,78.67 L29.913,68.47 C30.983,68.03 31.963,67.44 32.843,66.71 L32.843,73.37 C32.843,74.52 33.763,75.44 34.913,75.44 C34.941,75.44 34.972,75.435 35.001,75.433 C35.03,75.435 35.057,75.44 35.088,75.44 C36.228,75.44 37.158,74.52 37.158,73.37 L37.158,66.71 C38.038,67.44 39.018,68.03 40.078,68.47 L40.078,78.67 Z" id="Shape" fill-rule="nonzero"></path>
            </g>
        </g>
    </g>
</svg>