<?xml version="1.0" encoding="UTF-8"?>
<svg width="83px" height="80px" viewBox="0 0 83 80" version="1.1" xmlns="http://www.w3.org/2000/svg" xmlns:xlink="http://www.w3.org/1999/xlink">
    <!-- Generator: Sketch 52.6 (67491) - http://www.bohemiancoding.com/sketch -->
    <title>fox</title>
    <desc>Created with Sketch.</desc>
    <g id="Page-1" stroke="none" stroke-width="1" fill="none" fill-rule="evenodd">
        <g id="fox" fill="#000000">
            <path d="M75.0128968,35.3 C81.2525353,27 82.8627646,16 82.8627646,6 C82.8627646,5 82.0576499,4.2 81.0512566,4.2 C71.5911596,4.2 62.9361772,8.5 56.0927028,14.8 C54.5831129,14.2 53.0735229,13.7 51.4632937,13.4 C51.563933,13.4 51.563933,13.4 51.6645723,13.3 C53.1741623,12.8 54.9856702,12.7 56.3946208,11.9 C57.0990961,11.5 57.1997354,10.2 56.3946208,9.8 C56.2939815,9.4 56.0927028,9.1 55.5895062,9 C46.7332451,7 37.2731481,7.3 28.7188051,10.1 C25.3977072,6.4 21.1708554,3.9 16.4408069,2.4 C13.2203483,1.3 5.26984127,-1.2 2.04938272,0.8 C-1.07043651,2.7 0.640432099,8.7 1.14362875,11.6 C1.94874339,17 3.357694,22.9 6.17559524,27.8 C-0.466600529,39.1 -0.768518519,53.7 7.3832672,64.6 C17.6484788,78.2 35.7635582,81.7 51.865851,79.2 C58.9106041,78.1 66.3579145,75.7 71.5911596,70.7 C77.5288801,65 79.1391093,56.7 78.434634,48.8 C78.0320767,44.3 76.8244048,39.7 75.0128968,35.3 Z M5.57175926,17.5 C4.86728395,14.7 2.35130071,7.4 3.65961199,4.5 C9.79861111,9.4 15.5350529,14 20.2651014,20.5 C21.2714947,21.8 23.48556,20.5 22.4791667,19.2 C18.1516755,13.5 12.817791,7.7 6.67879189,3.6 C9.99988977,4 15.2331349,6 16.6420855,6.6 C20.6676587,8.3 24.0893959,10.8 27.0079365,14.1 C28.2156085,15.4 29.7251984,14.5 30.1277557,13.2 C36.5686728,11.2 43.5127866,10.5 50.356261,10.9 C49.0479497,11.4 47.6389991,12 46.8338845,13 C46.6326058,13.2 46.5319665,13.4 46.4313272,13.6 C46.2300485,14.3 46.5319665,15.1 47.3370811,15.4 C49.6517857,16.2 51.865851,17 53.9792769,18 C54.2811949,19.1 55.7907848,19.9 56.9984568,18.9 C62.1310626,14.5 67.4649471,10.8 73.6039462,8.9 C68.3707011,12.8 63.8419312,18.5 61.2253086,23.7 C60.5208333,25.1 62.5336199,26.3 63.4393739,25 C65.8547178,21.4 68.1694224,17.8 71.2892416,14.7 C73.8052249,12.1 76.8244048,10.1 79.5416667,7.8 C79.8435847,17.7 76.2205688,26.2 71.9937169,35.2 C63.2380952,31.8 48.5447531,25.2 42.0031966,33.9 C39.1852954,22.8 18.9567901,25.5 9.39605379,28.3 C8.18838183,24.7 6.57815256,21.2 5.57175926,17.5 Z M7.28262787,32.4 C18.7555115,31.4 32.5430996,24.8 40.292328,36.7 C40.594246,37.2 41.2987213,37.3 41.7012787,37 C41.9025573,37 42.0031966,36.9 42.103836,36.8 C51.262015,29.5 62.7348986,35.3 72.4969136,38.8 C73.3020282,41.1 73.9058642,43.6 74.2077822,46 C70.0815697,51.4 65.0496032,55.7 57.7029321,55.3 C49.6517857,54.8 46.4313272,49 42.405754,43.2 C41.801918,42.3 40.3929674,42.5 40.0910494,43.4 C34.1533289,46.8 29.8258377,51.6 22.6804453,53.2 C18.6548721,54.1 14.4280203,54 10.8050044,52 C7.58454586,50.2 6.27623457,47.5 4.46472663,44.7 C4.56536596,40.7 5.3704806,36.5 7.28262787,32.4 Z M74.5097002,55.2 C72.2956349,75.9 45.2236552,79.2 28.9200838,74.8 C17.5478395,71.7 8.89285714,63.4 5.77303792,53.3 C9.19477513,56.1 14.1261023,57.7 18.1516755,57.6 C26.2028219,57.5 35.1597222,52.6 40.4936067,46.4 C42.3051146,53.3 50.4569004,58.3 57.0990961,59 C63.4393739,59.7 70.6854056,56.8 74.7109788,51.6 C74.7109788,52.9 74.6103395,54.1 74.5097002,55.2 Z" id="Shape" fill-rule="nonzero"></path>
            <path d="M21.7746914,46.7 C21.8753307,46.5 21.97597,46.3 22.0766093,46.1 C22.6804453,43.8 20.3657407,41.8 18.1516755,42.5 C15.8369709,43.2 15.0318563,46 16.6420855,47.8 C18.1516755,49.5 21.1708554,49 21.7746914,46.7 Z" id="Path"></path>
            <path d="M61.627866,49.9 C62.7348986,49.7 63.6406526,48.8 64.0432099,47.8 C64.5464065,46.6 64.5464065,44.9 63.2380952,44.2 C62.9361772,44 62.5336199,44 62.1310626,44 C60.3195547,43.2 58.0048501,44.3 57.7029321,46.4 C57.4010141,48.6 59.51444,50.4 61.627866,49.9 Z" id="Path"></path>
            <path d="M45.3242945,60.5 C44.5191799,61.1 44.0159832,62.2 42.8083113,61.4 C42.103836,61 41.7012787,60.2 41.2987213,59.5 C41.7012787,59.3 42.103836,59.1 42.5063933,58.7 C43.1102293,58 43.3115079,57.1 42.8083113,56.3 C42.6070326,55.9 42.103836,55.6 41.7012787,55.4 C40.4936067,54.3 38.4808201,54.1 37.0718695,54.5 C35.8641975,54.9 35.1597222,56.3 35.8641975,57.5 C36.3673942,58.3 37.1725088,59 38.0782628,59.4 C37.6757055,60.2 37.2731481,60.9 36.1661155,61.2 C35.5622795,61.4 34.5558862,61.4 33.9520503,61 C33.4488536,60.7 33.4488536,60 32.945657,59.5 C32.643739,59.2 32.1405423,59.1 31.737985,59.2 C31.6373457,59.2 31.6373457,59.2 31.5367063,59.2 C31.0335097,59.3 30.5303131,59.8 30.4296737,60.3 C29.9264771,63.6 33.6501323,64.9 36.3673942,64.1 C37.4744268,63.8 38.5814594,63 39.4872134,62 C40.0910494,63.2 41.198082,64.2 42.5063933,64.6 C43.7140653,65 44.9217372,64.8 45.9281305,64.1 C46.9345238,63.4 47.6389991,61.9 46.9345238,60.8 C46.6326058,60.4 45.8274912,60.1 45.3242945,60.5 Z" id="Path"></path>
        </g>
    </g>
</svg>