<?xml version="1.0" encoding="UTF-8"?>
<svg width="98px" height="99px" viewBox="0 0 98 99" version="1.1" xmlns="http://www.w3.org/2000/svg" xmlns:xlink="http://www.w3.org/1999/xlink">
    <!-- Generator: Sketch 52.6 (67491) - http://www.bohemiancoding.com/sketch -->
    <title>lion</title>
    <desc>Created with Sketch.</desc>
    <g id="Page-1" stroke="none" stroke-width="1" fill="none" fill-rule="evenodd">
        <g id="lion" fill="#000000">
            <path d="M61.9343832,19.2387169 C62.0354331,19.2387169 62.0354331,19.2387169 62.1364829,19.137169 C63.652231,18.6294293 65.4711286,18.5278814 66.8858268,17.7154979 C67.5931759,17.3093062 67.6942257,15.9891831 66.8858268,15.5829914 C66.7847769,15.1767997 66.5826772,14.8721559 66.0774278,14.770608 C49.808399,11.0133346 31.6194226,15.1767997 20.4028871,28.2764827 C10.0958005,40.3606863 7.97375328,58.4362178 17.6745407,71.3328049 C27.9816273,85.1433234 46.1706037,88.6975009 62.3385827,86.1588027 C69.4120735,85.0417755 76.8897638,82.6046251 82.144357,77.5272286 C88.1062992,71.7389966 89.7230971,63.3105185 89.015748,55.288232 C87.7020997,40.2591384 77.5971129,22.4882507 61.9343832,19.2387169 Z M85.0748031,61.7872995 C82.851706,82.807721 55.6692913,86.1588027 39.2992126,81.6906938 C20.2007874,76.5117493 8.78215223,56.6083551 17.8766404,37.923536 C25.8595801,21.4727714 43.7454068,15.7860873 60.7217848,16.8015666 C59.4081365,17.3093062 57.9934383,17.9185938 57.1850394,18.9340731 C56.9829396,19.137169 56.8818898,19.3402648 56.7808399,19.5433607 C56.5787402,20.2541962 56.8818898,21.0665796 57.6902887,21.3712234 C66.2795276,24.3161134 73.7572178,28.1749347 78.8097113,35.9941253 C83.660105,43.5086721 85.984252,53.0541775 85.0748031,61.7872995 Z" id="Shape" fill-rule="nonzero"></path>
            <path d="M94.4724409,40.3606863 C94.6745407,40.4622342 94.8766404,40.5637822 95.0787402,40.6653301 C95.7860892,41.0715218 96.9986877,40.5637822 96.8976378,39.6498508 C96.1902887,33.8616188 93.8661417,28.5811264 89.824147,24.4176613 C92.4514436,21.0665796 92.5524934,15.8876352 89.1167979,12.5365535 C85.984252,9.3885677 81.5380577,9.49011563 78.2034121,11.4195263 C74.1614173,8.27154047 69.4120735,6.95141738 64.3595801,6.54522566 C65.167979,5.73284222 65.976378,4.81891085 66.8858268,4.00652742 C67.8963255,2.99104812 67.1889764,0.960089519 65.6732283,1.06163745 C61.0249344,1.36628124 55.0629921,1.97556882 51.2230971,5.02200671 C48.8989501,2.28021261 45.7664042,0.858541589 42.2296588,0.0461581499 C40.9160105,-0.25848564 39.6023622,1.16318538 40.4107612,2.48330847 C40.6128609,2.78795226 40.7139108,3.09259605 40.9160105,3.39723984 C36.2677165,3.80343156 31.6194226,4.41271913 27.1732283,5.83439015 C26.9711286,5.93593808 26.8700787,5.93593808 26.667979,6.03748601 C23.2322835,3.39723984 17.9776903,2.99104812 14.339895,6.03748601 C11.0052493,8.88082805 9.99475066,14.5675121 12.1167979,18.3247855 C3.42650919,24.0114696 0.293963255,35.4863857 0.0918635171,45.2349869 C0.0918635171,46.55511 1.60761155,46.656658 2.31496063,45.8442745 C2.82020997,45.133439 3.42650919,44.5241514 4.0328084,43.9148639 C2.4160105,52.5464379 1.30446194,61.4826557 4.84120735,69.708038 C8.07480315,77.3241328 14.4409449,82.9092689 22.1207349,85.651063 C22.5249344,85.752611 22.828084,85.752611 23.1312336,85.651063 C29.0931759,93.1656098 40.3097113,97.6337188 49.3031496,98.0399105 C49.6062992,98.4461022 50.1115486,98.750746 50.7178478,98.8522939 C58.3976378,99.4615815 66.1784777,96.6182395 71.8372703,91.540843 C71.8372703,91.7439388 71.9383202,92.0485826 71.9383202,92.2516785 C72.0393701,93.1656098 73.3530184,93.5718016 74.0603675,93.1656098 C84.1653543,86.6665423 94.6745407,75.8009138 95.2808399,63.0058747 C95.988189,63.2089705 96.7965879,62.9043267 96.9986877,62.0919433 C98.8175853,54.8820403 97.7060367,47.0628497 94.4724409,40.3606863 Z M88.2073491,18.7309772 C88.2073491,20.9650317 86.691601,23.1990862 84.1653543,24.2145655 C83.660105,23.6052779 83.0538058,22.8944424 82.4475066,22.3867027 C84.0643045,20.6603879 85.7821522,17.3093062 88.2073491,18.7309772 Z M85.984252,14.6690601 C86.0853018,14.770608 86.2874016,14.8721559 86.3884514,14.9737038 C85.984252,14.9737038 85.6811024,15.0752518 85.2769029,15.1767997 C82.9527559,15.7860873 81.0328084,18.0201417 80.1233596,20.2541962 C78.9107612,19.3402648 77.5971129,18.4263335 76.2834646,17.7154979 C78.6076115,14.770608 82.3464567,11.825718 85.984252,14.6690601 Z M16.4619423,8.88082805 C18.3818898,7.25606117 21.2112861,6.95141738 23.4343832,8.06844461 C25.152231,8.98237598 26.0616798,10.6071429 26.8700787,12.3334577 C25.4553806,12.9427452 24.0406824,13.7551287 22.828084,14.770608 C21.6154856,12.4350056 19.7965879,10.2009511 17.0682415,9.69321149 C16.664042,9.59166356 16.2598425,9.59166356 15.855643,9.69321149 C15.9566929,9.3885677 16.2598425,9.08392391 16.4619423,8.88082805 Z M20.6049869,16.5984707 C19.6955381,17.4108542 18.6850394,18.4263335 17.7755906,19.4418128 C15.855643,17.7154979 14.339895,15.3798956 14.339895,13.1458411 C16.7650919,11.2164304 19.0892388,14.2628683 20.6049869,16.5984707 Z M94.6745407,58.7408616 C94.0682415,58.3346699 93.1587927,58.4362178 92.9566929,59.3501492 C90.3293963,72.0436404 84.8727034,81.4875979 74.7677165,89.1036927 C74.7677165,88.6975009 74.7677165,88.2913092 74.7677165,87.8851175 C74.7677165,86.3618985 72.847769,85.5495151 71.7362205,86.6665423 C65.7742782,92.5563223 59.003937,95.0950205 50.8188976,94.8919247 C50.6167979,94.8919247 50.515748,94.8919247 50.3136483,94.8919247 C50.2125984,94.7903767 50.0104987,94.7903767 49.9094488,94.7903767 C44.7559055,94.0795412 40.0065617,92.962514 35.3582677,90.6269116 C30.7099738,88.2913092 27.2742782,84.6355837 23.2322835,81.4875979 C22.5249344,80.9798583 21.7165354,81.1829541 21.312336,81.7922417 C14.8451444,79.0504476 9.48950131,73.8715032 7.06430446,67.1693398 C3.93175853,58.6393137 5.95275591,49.2969041 7.67060367,40.766878 C7.87270341,39.5483029 6.66010499,38.4312756 5.54855643,39.1421112 C4.43700787,39.8529467 3.52755906,40.5637822 2.7191601,41.3761656 C3.83070866,33.1507833 8.47900262,26.8548116 13.6325459,20.2541962 C14.339895,20.8634838 15.148294,21.3712234 16.0577428,21.6758672 C15.2493438,22.8944424 14.7440945,24.2145655 14.7440945,25.4331406 C14.7440945,26.4486199 15.9566929,27.2610034 16.8661417,26.6517158 C19.4934383,24.823853 20.9081365,21.4727714 23.3333333,19.2387169 C26.0616798,16.8015666 29.3963255,15.2783476 32.4278215,13.247389 C33.2362205,12.6381015 33.0341207,11.2164304 31.9225722,11.2164304 C31.2152231,11.2164304 30.6089239,11.3179784 30.0026247,11.4195263 C29.8005249,10.5055949 29.5984252,9.69321149 29.1942257,8.98237598 C33.7414698,7.76380082 38.187664,6.64677359 42.9370079,6.24058187 C43.7454068,6.13903394 44.351706,5.63129429 44.351706,4.81891085 C44.351706,4.61581499 44.351706,4.41271913 44.351706,4.20962327 C46.3727034,4.92045878 48.191601,5.93593808 50.2125984,6.95141738 C50.3136483,7.3576091 50.6167979,7.76380082 51.1220472,7.66225289 C54.6587927,7.3576091 57.9934383,6.13903394 61.4291339,5.3266505 C60.9238845,5.93593808 60.4186352,6.44367773 59.9133858,7.05296531 C59.003937,8.06844461 59.6102362,9.69321149 61.0249344,9.69321149 C66.4816273,9.69321149 71.1299213,11.3179784 76.0813648,13.348937 C75.171916,14.3644163 74.4645669,15.4814435 74.0603675,16.9031145 C72.7467192,16.3953749 72.0393701,18.4263335 73.1509186,19.137169 C75.6771654,20.7619358 78.1023622,22.3867027 80.2244094,24.5192093 C82.2454068,26.5501678 83.5590551,28.9873182 85.3779528,31.1198247 C86.1863517,32.0337561 87.5,31.0182768 87.2979003,30.0027975 C87.0958005,29.0888661 86.691601,28.1749347 86.2874016,27.2610034 C87.1968504,26.9563596 87.9041995,26.4486199 88.6115486,25.9408803 C90.8346457,29.3935099 92.5524934,32.8461395 93.7650919,36.7049608 C92.9566929,36.2987691 92.148294,35.8925774 91.339895,35.4863857 C90.0262467,34.978646 88.7125984,36.8065088 89.4199475,37.923536 C93.664042,44.4226035 95.17979,51.2263148 94.6745407,58.7408616 Z" id="Shape" fill-rule="nonzero"></path>
            <path d="M61.5301837,61.1780119 C60.4186352,63.4120664 60.4186352,65.0368333 57.488189,65.443025 C54.8608924,65.8492167 52.839895,64.9352853 52.2335958,62.3965871 C52.5367454,62.0919433 52.839895,61.7872995 53.0419948,61.4826557 C54.2545932,60.1625326 55.3661417,58.8424095 56.4776903,57.4207385 C57.6902887,55.6944237 55.0629921,53.6634651 53.648294,55.1866841 C52.839895,55.9990675 52.2335958,56.9129989 51.5262467,57.7253823 C51.2230971,58.131574 50.8188976,58.8424095 50.3136483,59.3501492 C49.5052493,58.7408616 48.4947507,57.6238344 47.9895013,57.1160947 C46.8779528,56.4052592 45.9685039,55.5928758 44.9580052,54.9835882 C43.9475066,54.3743006 42.6338583,55.5928758 43.3412073,56.6083551 C44.351706,58.0300261 45.5643045,59.2486013 46.7769029,60.5687244 C47.3832021,61.1780119 47.9895013,62.0919433 48.7979003,62.599683 C48.3937008,63.7167102 48.0905512,64.6306416 47.1811024,65.443025 C45.9685039,66.3569564 44.351706,66.7631481 42.9370079,66.7631481 C41.4212598,66.7631481 39.8044619,66.1538605 39.0971129,64.8337374 C38.4908136,63.8182581 38.6929134,62.599683 38.4908136,61.3811078 C38.3897638,60.7718202 37.480315,60.3656285 36.9750656,60.7718202 C35.0551181,62.0919433 35.156168,64.6306416 36.0656168,66.5600522 C37.2782152,68.8956546 39.6023622,70.1142298 42.1286089,70.4188736 C44.9580052,70.7235173 48.8989501,69.4033943 50.9199475,66.9662439 C52.7388451,68.5910108 55.5682415,69.4033943 57.7913386,69.3018463 C60.0144357,69.2002984 62.2375328,68.286367 63.652231,66.4585043 C64.9658793,64.8337374 65.4711286,62.3965871 63.9553806,60.7718202 C63.1469816,60.1625326 61.9343832,60.2640806 61.5301837,61.1780119 Z" id="Path"></path>
            <path d="M29.0931759,48.1798769 C28.2847769,48.7891645 27.7795276,49.9061917 27.7795276,50.921671 C27.7795276,51.7340545 28.0826772,52.5464379 28.5879265,53.0541775 C28.6889764,53.1557255 28.6889764,53.2572734 28.7900262,53.3588213 C29.4973753,54.1712048 30.7099738,54.4758486 31.8215223,54.2727527 C34.0446194,53.866561 35.156168,51.2263148 34.1456693,49.2969041 C33.2362205,47.5705893 30.7099738,46.9613018 29.0931759,48.1798769 Z" id="Path"></path>
            <path d="M65.0669291,49.7030959 C64.1574803,50.4139314 63.652231,51.5309586 63.7532808,52.7495338 C63.8543307,53.7650131 64.3595801,54.7804924 65.167979,55.288232 C65.976378,55.8975196 66.9868766,56.2021634 68.0984252,55.9990675 C70.4225722,55.4913279 71.332021,52.8510817 70.3215223,50.8201231 C69.4120735,48.6876166 66.7847769,48.3829728 65.0669291,49.7030959 Z" id="Path"></path>
        </g>
    </g>
</svg>