<?xml version="1.0" encoding="UTF-8"?>
<svg width="98px" height="74px" viewBox="0 0 98 74" version="1.1" xmlns="http://www.w3.org/2000/svg" xmlns:xlink="http://www.w3.org/1999/xlink">
    <!-- Generator: Sketch 52.6 (67491) - http://www.bohemiancoding.com/sketch -->
    <title>monkey</title>
    <desc>Created with Sketch.</desc>
    <g id="Page-1" stroke="none" stroke-width="1" fill="none" fill-rule="evenodd">
        <g id="monkey" fill="#000000">
            <path d="M97.7994792,39.0421053 C97.5989583,33.5284211 96.8971354,26.2789474 92.2851563,22.6031579 C89.1770833,20.1526316 84.765625,20.0505263 82.2591146,22.9094737 C77.546875,14.5368421 70.328125,7.69578947 61.3046875,5.85789474 C61.4049479,5.85789474 61.4049479,5.85789474 61.5052083,5.75578947 C63.0091146,5.24526316 64.8138021,5.14315789 66.2174479,4.32631579 C66.9192708,3.91789474 67.0195313,2.59052632 66.2174479,2.18210526 C66.1171875,1.77368421 65.9166667,1.46736842 65.4153646,1.36526316 C49.2734375,-2.41263158 31.2265625,1.77368421 20.0976563,14.9452632 C18.2929688,17.0894737 16.6888021,19.4378947 15.4856771,21.8884211 C13.9817708,19.7442105 10.9739583,19.1315789 8.26692708,20.1526316 C2.65234375,22.2968421 1.24869792,29.24 0.446614583,34.6515789 C-0.35546875,40.3694737 -0.455729167,47.4147368 3.45442708,52.1115789 C6.36197917,55.5831579 11.2747396,56.9105263 15.0846354,54.3578947 C15.7864583,55.6852632 16.5885417,56.9105263 17.4908854,58.1357895 C27.7174479,72.0221053 45.7643229,75.5957895 61.8059896,73.0431579 C68.8242188,71.92 76.2434896,69.4694737 81.4570313,64.3642105 C84.2643229,61.6073684 86.0690104,58.1357895 87.171875,54.46 C88.7760417,55.4810526 90.9817708,55.5831579 92.7864583,54.6642105 C97.7994792,52.2136842 97.8997396,43.8410526 97.7994792,39.0421053 Z M60.1015625,3.40736842 C58.7981771,3.91789474 57.3945313,4.53052632 56.5924479,5.55157895 C56.3919271,5.75578947 56.2916667,5.96 56.1914063,6.16421053 C55.9908854,6.87894737 56.2916667,7.69578947 57.09375,8.00210526 C60.703125,9.22736842 64.0117188,10.6568421 67.1197917,12.3926316 C59.2994792,12.2905263 50.9778646,17.0894737 47.9700521,24.3389474 C45.5638021,18.2126316 39.4479167,13.5157895 32.8307292,13.6178947 C28.7200521,13.72 24.5091146,15.8642105 21,18.9273684 C29.9231771,6.77684211 45.3632813,2.48842105 60.1015625,3.40736842 Z M10.2721354,35.2642105 C10.6731771,35.8768421 10.8736979,36.5915789 11.1744792,37.3063158 C10.9739583,42.1052632 11.6757813,46.9042105 13.4804688,51.3968421 C5.359375,55.7873684 3.75520833,43.3305263 4.25651042,38.1231579 C4.45703125,35.2642105 4.85807292,32.4052632 5.76041667,29.7505263 C6.16145833,28.5252632 6.5625,26.9936842 7.56510417,25.9726316 C8.86848958,24.6452632 12.0768229,24.2368421 13.78125,25.36 C12.9791667,27.5042105 12.2773438,29.6484211 11.8763021,31.7926316 C11.375,31.2821053 10.8736979,30.8736842 10.171875,30.7715789 C9.36979167,30.7715789 8.96875,31.3842105 8.86848958,32.0989474 C8.76822917,33.3242105 9.77083333,34.3452632 10.2721354,35.2642105 Z M84.2643229,48.64 C82.0585938,69.7757895 55.0885417,73.1452632 38.8463542,68.6526316 C22.0026042,63.9557895 11.1744792,47.5168421 15.4856771,30.6694737 C19.2955729,26.1768421 22.8046875,21.3778947 28.21875,18.6210526 C36.7408854,14.4347368 45.3632813,22.7052632 46.1653646,31.0778947 C46.265625,31.8947368 46.7669271,32.3031579 47.2682292,32.4052632 C47.7695313,32.9157895 48.9726563,32.6094737 49.1731771,31.7926316 C51.4791667,25.7684211 53.8854167,20.2547368 60.3020833,17.7021053 C66.1171875,15.4557895 71.0299479,17.4978947 76.1432292,19.9484211 C76.8450521,20.7652632 77.4466146,21.6842105 78.0481771,22.6031579 C82.8606771,30.1589474 85.1666667,39.8589474 84.2643229,48.64 Z M87.8736979,50.8863158 C88.375,47.9252632 88.375,44.9642105 88.1744792,42.0031579 C88.0742188,40.7778947 87.8736979,39.5526316 87.6731771,38.2252632 C87.7734375,37.9189474 87.9739583,37.6126316 88.0742188,37.3063158 C88.5755208,36.2852632 89.578125,35.5705263 90.0794271,34.5494737 C90.78125,33.0178947 89.3776042,31.5884211 87.8736979,32.3031579 C87.3723958,32.5073684 86.9713542,32.9157895 86.5703125,33.4263158 C85.96875,31.2821053 85.1666667,29.0357895 84.2643229,26.9936842 C84.2643229,26.9936842 84.2643229,26.8915789 84.3645833,26.8915789 C87.5729167,20.2547368 92.3854167,28.6273684 93.3880208,31.3842105 C94.2903646,33.8347368 94.6914063,36.4894737 94.7916667,39.0421053 C94.7916667,43.3305263 93.5885417,53.2347368 87.8736979,50.8863158 Z" id="Shape" fill-rule="nonzero"></path>
            <path d="M45.9648437,50.6821053 C46.7669271,51.0905263 47.8697917,50.8863158 48.3710937,50.0694737 C48.7721354,49.3547368 49.2734375,48.64 49.2734375,47.8231579 C49.3736979,46.5978947 47.9700521,45.9852632 46.9674479,46.4957895 C46.265625,46.9042105 45.7643229,47.7210526 45.3632812,48.3336842 C44.7617187,48.9463158 45.1627604,50.1715789 45.9648437,50.6821053 Z" id="Path"></path>
            <path d="M53.484375,50.58 C54.1861979,50.0694737 54.5872396,49.0484211 54.0859375,48.2315789 C53.6848958,47.6189474 53.2838542,47.0063158 52.6822917,46.5978947 C51.8802083,45.9852632 50.3763021,46.8021053 50.4765625,47.9252632 C50.5768229,48.7421053 50.8776042,49.3547368 51.2786458,49.9673684 C51.6796875,50.6821053 52.7825521,51.0905263 53.484375,50.58 Z" id="Path"></path>
            <path d="M32.2291667,41.4926316 C32.2291667,41.3905263 32.1289063,41.1863158 32.0286458,41.0842105 C32.0286458,41.0842105 32.0286458,40.9821053 32.0286458,40.9821053 C31.6276042,40.2673684 31.0260417,39.6547368 30.1236979,39.4505263 C29.0208333,39.2463158 27.9179687,39.4505263 27.2161458,40.2673684 C26.4140625,41.0842105 26.1132812,42.2073684 26.3138021,43.3305263 C26.7148437,45.5768421 29.5221354,46.4957895 31.3268229,45.1684211 C32.3294271,44.4536842 32.7304688,43.1263158 32.4296875,41.9010526 C32.3294271,41.6968421 32.3294271,41.5947368 32.2291667,41.4926316 Z" id="Path"></path>
            <path d="M68.7239583,40.5736842 C67.6210937,40.5736842 66.4179687,41.1863158 65.9166667,42.2073684 C65.4153646,43.0242105 65.3151042,44.1473684 65.7161458,44.9642105 C65.8164062,45.2705263 65.9166667,45.5768421 66.0169271,45.7810526 C67.2200521,47.9252632 70.4283854,47.7210526 71.6315104,45.6789474 C72.8346354,43.4326316 71.2304687,40.5736842 68.7239583,40.5736842 Z" id="Path"></path>
            <path d="M53.2838542,55.0726316 C51.3789062,55.5831579 50.1757812,56.8084211 48.0703125,56.5021053 C46.3658854,56.2978947 45.2630208,55.2768421 43.7591146,54.6642105 C42.8567708,54.2557895 42.2552083,55.2768421 42.3554687,56.0936842 C43.1575521,61.6073684 53.0833333,62.5263158 55.3893229,57.8294737 C55.9908854,56.2978947 54.8880208,54.5621053 53.2838542,55.0726316 Z" id="Path"></path>
        </g>
    </g>
</svg>