<?xml version="1.0" encoding="UTF-8"?>
<svg width="77px" height="75px" viewBox="0 0 77 75" version="1.1" xmlns="http://www.w3.org/2000/svg" xmlns:xlink="http://www.w3.org/1999/xlink">
    <!-- Generator: Sketch 52.6 (67491) - http://www.bohemiancoding.com/sketch -->
    <title>panda</title>
    <desc>Created with Sketch.</desc>
    <g id="Page-1" stroke="none" stroke-width="1" fill="none" fill-rule="evenodd">
        <g id="panda" fill="#000000">
            <path d="M76.8097555,43.4415978 C76.3096281,38.0035252 74.7092206,32.2633375 72.1085583,26.92597 C76.8097555,22.1928328 78.5101885,12.4244431 73.308864,7.89271601 C68.5076414,3.66310401 60.6056291,5.47579486 57.1047376,10.5110472 C54.9041773,9.30258667 52.503566,8.39624124 50.0029292,7.89271601 C50.1029547,7.89271601 50.1029547,7.89271601 50.2029801,7.79201096 C51.7033622,7.28848572 53.5038207,7.18778067 54.9041773,6.38214029 C55.6043556,5.9793201 55.704381,4.67015448 54.9041773,4.26733429 C54.8041518,3.8645141 54.6041009,3.56239896 54.1039735,3.46169391 C44.4015028,1.24618286 33.9988538,1.85041315 24.7965104,5.57649991 C20.8955171,-0.767918089 11.1930464,-1.67426352 5.4915945,3.15957877 C0.990448293,6.98637058 0.590346409,17.4596955 5.99172185,20.6822571 C-1.51018849,32.3640426 -2.31039226,47.973325 6.1917728,59.4537004 C16.3943709,73.1495869 34.4989812,76.6742635 50.4030311,74.1566373 C57.4048141,73.0488818 64.8066989,70.6319607 70.0080234,65.5967083 C75.9095262,59.8565206 77.5099338,51.4980016 76.8097555,43.4415978 Z M73.0087876,50.088131 C70.8082272,70.9340758 43.9013754,74.2573424 27.6972491,69.8263203 C8.79243505,64.5896578 -2.5104432,44.9521735 6.49184921,26.4224448 C7.39207845,24.5090489 8.49235863,22.696358 9.69266429,20.9843722 C9.69266429,20.9843722 9.69266429,20.9843722 9.69266429,20.9843722 C10.0927662,20.480847 10.1927916,19.8766167 9.59263882,19.4737965 C7.29205298,17.6611056 5.4915945,14.4385441 5.39156903,11.3166876 C5.99172185,9.30258667 7.89220581,7.89271601 10.0927662,8.19483115 C12.6934284,8.59765134 14.6939379,10.7124573 15.1940652,13.3307886 C15.5941671,15.2441845 18.6949567,14.237134 17.8947529,12.2230331 C16.2943454,8.39624124 13.2935813,4.97226962 8.69240958,5.57649991 C8.69240958,5.57649991 8.69240958,5.57649991 8.69240958,5.57649991 C8.69240958,5.57649991 8.69240958,5.57649991 8.69240958,5.57649991 C13.8937341,2.85746362 19.395135,4.87156458 22.996052,9.10117658 C23.5962048,9.90681696 24.696485,9.70540686 25.3966633,9.10117658 C32.6985227,6.08002515 40.9006113,5.07297467 49.0026745,5.57649991 C47.7023434,6.08002515 46.3019868,6.68425543 45.501783,7.69130591 C45.301732,7.89271601 45.2017066,8.0941261 45.1016811,8.2955362 C44.9016302,9.00047153 45.2017066,9.80611191 46.0019103,10.1082271 C49.6028273,11.3166876 52.9036679,12.7265583 56.0044575,14.4385441 C56.5045848,15.2441845 57.604865,15.5462996 58.4050688,14.8413643 C61.5058584,11.7195078 65.9069791,6.98637058 70.4081253,10.7124573 C69.8079725,10.6117523 69.3078451,10.6117523 68.8077178,10.7124573 C65.4068518,11.2159826 62.8061895,14.0357239 61.5058584,17.0568753 C60.7056546,18.8695662 63.3063169,20.581552 64.2065461,18.6681561 C65.1067753,16.7547602 66.1070301,14.7406592 68.1075395,13.8343138 C70.0080234,13.0286734 71.2083291,13.6329037 72.5086602,14.4385441 C73.2088385,18.2653359 70.6081763,22.9984731 68.207565,25.5160993 C67.2073102,26.5231498 67.9074885,28.1344306 69.0077687,28.5372508 C72.2085838,35.1837839 73.7089659,42.8373675 73.0087876,50.088131 Z" id="Shape" fill-rule="nonzero"></path>
            <path d="M48.6025726,49.5846057 C48.0024198,50.4909511 48.0024198,51.4980016 47.6023179,52.5050521 C47.1021905,53.6128076 46.2019613,54.6198581 44.9016302,54.9219732 C43.80135,55.2240884 42.6010443,55.0226783 41.8008406,54.1163329 C41.1006623,53.4113975 41.0006368,52.404347 40.9006113,51.4980016 C43.2011971,50.5916562 45.7018339,48.2754401 45.9018849,46.1606341 C46.2019613,43.0387776 41.6007896,42.6359574 39.5002547,42.4345473 C37.2996943,42.2331372 32.2984208,42.3338423 32.5984972,45.7578139 C32.4984717,45.959224 32.4984717,46.2613391 32.6985227,46.5634543 C34.0988793,48.3761451 35.1991594,50.7930663 37.2996943,51.5987067 C36.3994651,53.8142177 34.899083,55.6269086 32.1983953,55.0226783 C29.4977076,54.519153 28.6975038,52.303642 27.3971727,50.289541 C26.7970199,49.3831956 25.4966887,49.7860158 25.3966633,50.7930663 C24.9965614,55.0226783 29.4977076,58.748765 33.4987264,58.748765 C35.6992868,58.748765 37.7998217,57.5403045 39.0001274,55.8283187 C40.400484,57.5403045 42.5010188,58.64806 44.5015283,58.64806 C46.6020632,58.5473549 48.7025981,57.4395994 49.9029037,55.7276136 C51.1032094,54.1163329 52.2034896,51.3972966 50.9031584,49.6853108 C50.3030056,48.7789653 49.2027254,48.7789653 48.6025726,49.5846057 Z M37.9998726,48.5775552 C36.9996179,48.2754401 36.0993887,47.2683896 35.1991594,46.3620442 C36.1994142,45.3549937 40.3004585,45.4556988 42.2009424,46.1606341 C41.900866,46.6641593 41.3007132,47.0669795 41.0006368,47.3690947 C40.1004075,48.2754401 39.4002292,49.0810805 37.9998726,48.5775552 Z" id="Shape" fill-rule="nonzero"></path>
            <path d="M33.0986246,34.5795536 C35.6992868,28.6379558 35.3992104,19.7759116 27.4971982,18.9702712 C26.9970708,18.9702712 26.6969944,19.0709763 26.4969435,19.2723864 C19.6952114,19.3730914 13.4936322,24.0055236 10.692919,30.2492366 C8.09225675,35.9894243 8.29230769,45.3549937 16.2943454,46.2613391 C23.3961538,47.0669795 30.3979368,40.7225615 33.0986246,34.5795536 Z M14.093785,41.628907 C10.0927662,37.9028202 13.7937086,30.4506467 16.7944727,27.2280851 C19.6952114,24.1062287 23.3961538,22.7970631 27.3971727,21.7900126 C27.4971982,21.7900126 27.4971982,21.7900126 27.5972236,21.7900126 C32.8985736,22.3942429 31.2981661,29.040776 30.1978859,31.7598123 C29.3976821,33.8746183 28.097351,35.8887192 26.5969689,37.600705 C23.8962812,40.4204464 17.7947275,45.0528786 14.093785,41.628907 Z" id="Shape" fill-rule="nonzero"></path>
            <path d="M61.7059093,28.3358407 C58.0049669,23.8041135 51.5033113,19.7759116 46.1019358,24.1062287 C40.400484,28.6379558 42.5010188,37.0971798 46.7020886,41.830317 C50.4030311,45.959224 58.9051961,50.4909511 64.1065206,46.4627492 C69.5078961,42.2331372 66.307081,33.169683 63.0062404,28.8393659 C62.6061386,28.4365457 62.1060112,28.2351356 61.7059093,28.3358407 Z M62.906215,42.6359574 C60.0054763,46.9662745 52.503566,42.5352524 50.1029547,40.1183312 C47.1021905,37.0971798 44.7015792,31.8605173 47.3022415,27.8323154 C51.1032094,22.1928328 57.0047122,27.2280851 60.8056801,30.1485315 C63.0062404,33.371093 65.3068263,38.9098707 62.906215,42.6359574 Z" id="Shape" fill-rule="nonzero"></path>
            <path d="M23.9963067,34.0760284 C23.4961793,33.270388 22.4959246,32.6661577 21.5956954,32.7668628 C20.3953897,32.8675678 19.1950841,33.7739132 18.8950076,34.9823738 C18.5949312,36.2915394 19.1950841,37.600705 20.3953897,38.3056404 C21.4956699,38.9098707 23.0960774,38.8091656 23.8962812,37.8021151 C24.7965104,36.8957697 25.0965869,35.0830789 23.9963067,34.0760284 C23.9963067,34.1767334 23.9963067,34.0760284 23.9963067,34.0760284 Z" id="Path"></path>
            <path d="M59.1052471,37.399295 C59.1052471,37.399295 59.1052471,37.399295 59.1052471,37.399295 C59.0052216,37.1978849 59.0052216,37.0971798 58.9051961,36.9964748 C58.9051961,36.9964748 58.9051961,36.9964748 58.9051961,36.9964748 C58.8051707,36.8957697 58.8051707,36.7950647 58.7051452,36.5936546 C58.7051452,36.5936546 58.7051452,36.5936546 58.7051452,36.5936546 C57.8049159,35.485899 56.1044829,35.0830789 54.9041773,36.1908344 C54.1039735,36.9964748 53.8038971,38.3056404 54.4040499,39.3126909 C54.9041773,40.2190363 55.8044065,40.7225615 56.8046612,40.7225615 C58.0049669,40.7225615 58.9051961,39.8162161 59.2052725,38.8091656 C59.305298,38.4063454 59.305298,38.0035252 59.2052725,37.600705 C59.1052471,37.5 59.1052471,37.5 59.1052471,37.399295 Z" id="Path"></path>
        </g>
    </g>
</svg>