<?xml version="1.0" encoding="UTF-8"?>
<svg width="85px" height="79px" viewBox="0 0 85 79" version="1.1" xmlns="http://www.w3.org/2000/svg" xmlns:xlink="http://www.w3.org/1999/xlink">
    <!-- Generator: Sketch 52.6 (67491) - http://www.bohemiancoding.com/sketch -->
    <title>puppy</title>
    <desc>Created with Sketch.</desc>
    <g id="Page-1" stroke="none" stroke-width="1" fill="none" fill-rule="evenodd">
        <g id="puppy" fill="#000000">
            <path d="M72.106183,3.84871795 C69.405619,2.02564103 66.5050132,1.01282051 64.1045119,3.7474359 C61.9040524,6.27948718 60.0036555,10.0269231 58.8034048,13.6730769 C56.7029662,12.5589744 54.5025066,11.7487179 52.1020053,11.2423077 C52.2020262,11.2423077 52.2020262,11.2423077 52.3020471,11.1410256 C53.8023604,10.6346154 55.6027364,10.5333333 57.0030288,9.72307692 C57.703175,9.31794872 57.8031959,8.00128205 57.0030288,7.59615385 C56.9030079,7.19102564 56.7029662,6.88717949 56.2028617,6.78589744 C46.7008773,4.76025641 36.4987467,5.36794872 27.4968667,8.81153846 C26.7967205,6.07692308 25.2964072,3.34230769 23.1959685,1.62051282 C20.2953628,-0.81025641 17.4947779,0.303846154 14.5941721,2.12692308 C8.99300237,5.77307692 -2.60942069,15.6987179 0.691268626,23.5987179 C1.49143573,25.624359 3.4918535,27.3461538 5.49227127,28.9666667 C0.491226849,39.9051282 0.791289514,53.1730769 8.29285615,63.2 C18.3949659,76.974359 36.4987467,80.5192308 52.5020888,77.9871795 C59.503551,76.8730769 66.9050968,74.4423077 72.106183,69.3782051 C78.0074154,63.6051282 79.6077496,55.1987179 78.9076034,47.1974359 C78.5075198,43.5512821 77.7073527,39.8038462 76.5071021,36.1576923 C80.7079794,33.7269231 84.4087523,30.0807692 84.8088358,26.5358974 C85.8090447,18.1294872 78.7075616,8.20384615 72.106183,3.84871795 Z M79.9078123,28.7641026 C79.307687,29.7769231 77.3072692,30.7897436 76.3070603,31.3974359 C74.5066843,32.6128205 71.3060159,35.0435897 69.1055563,34.8410256 C62.0040732,34.2333333 67.5052221,17.1166667 68.4054101,13.4705128 C68.9055146,11.5461538 65.9048879,10.6346154 65.4047835,12.6602564 C64.1045119,17.724359 57.703175,37.2717949 66.5050132,38.7910256 C68.4054101,39.0948718 70.9059323,38.6897436 73.4064545,37.6769231 C75.0067887,42.8423077 75.706935,48.4128205 75.1068096,53.7807692 C72.9063501,74.7461538 46.0007311,78.0884615 29.7973472,73.6320513 C11.093441,68.4666667 -0.108898482,49.2230769 8.09281437,30.7897436 C8.59291881,31.1948718 9.09302326,31.4987179 9.49310681,31.8025641 C11.7935872,33.625641 15.4943601,36.8666667 18.5950077,34.8410256 C21.5956343,32.9166667 22.0957388,27.3461538 22.5958432,24.1051282 C23.4960312,18.3320513 23.0959476,12.6602564 21.7956761,6.98846154 C21.3955925,5.16538462 18.6950285,5.97564103 19.0951121,7.6974359 C20.3953837,14.0782051 20.5954254,20.6615385 18.8950703,27.0423077 C18.294945,29.1692308 18.3949659,30.9923077 16.1945063,31.0935897 C14.4941512,31.1948718 13.3939215,29.9794872 11.993629,29.0679487 C9.99321125,27.5487179 6.79254282,25.624359 5.29222949,23.5987179 C1.59145662,18.5346154 8.49289793,11.5461538 12.1936708,8.40641026 C14.4941512,6.38076923 18.1949241,2.93717949 21.4956134,4.96282051 C23.7960939,6.38076923 24.7963027,10.0269231 25.7965116,12.3564103 C26.1965952,13.2679487 27.5968876,12.9641026 27.8969503,12.1538462 C34.9984334,9.31794872 43.0001044,8.30512821 50.9017546,8.81153846 C49.6014831,9.31794872 48.2011906,9.92564103 47.4010235,10.9384615 C47.2009818,11.1410256 47.1009609,11.3435897 47.00094,11.5461538 C46.8008982,12.2551282 47.1009609,13.0653846 47.901128,13.3692308 C51.4018591,14.5846154 54.7025484,16.0025641 57.8031959,17.724359 C57.8031959,17.825641 57.8031959,17.9269231 57.703175,18.0282051 C57.6031542,19.0410256 59.1034675,19.3448718 59.503551,18.5346154 C61.8040315,14.2807692 64.7046372,2.63333333 71.1059741,7.6974359 C75.3068514,11.0397436 79.4077078,16.2051282 80.5079376,21.775641 C80.9080212,23.9025641 80.9080212,27.1435897 79.9078123,28.7641026 Z" id="Shape" fill-rule="nonzero"></path>
            <path d="M56.3028826,57.7307692 C56.1028408,60.8705128 54.9025902,63.8076923 51.4018591,64.2128205 C48.2011906,64.6179487 46.5008355,62.5923077 45.3005849,60.0602564 C47.2009818,59.8576923 49.3014204,59.25 50.0015666,57.6294872 C50.3016293,57.0217949 50.5016711,56.1102564 50.0015666,55.5025641 C49.9015457,55.4012821 49.8015249,55.3 49.8015249,55.1987179 C49.2013995,54.3884615 48.2011906,54.0846154 47.4010235,54.4897436 C44.1003342,53.9833333 34.5983498,53.274359 36.9988511,58.3384615 C37.8990391,60.3641026 40.699624,60.3641026 42.8000627,60.2628205 C42.2999582,63.0987179 40.2995405,65.225641 37.1988929,65.3269231 C33.7981827,65.4282051 31.9978067,63.3012821 30.9975978,60.2628205 C30.7975561,59.6551282 29.9973889,59.5538462 29.6973263,60.0602564 C27.0967832,65.0230769 33.3980992,68.9730769 37.5989765,68.7705128 C40.5996031,68.5679487 43.3001671,66.8461538 44.6004387,64.3141026 C46.3007938,66.4410256 49.1013786,67.7576923 51.8019426,67.5551282 C56.7029662,67.2512821 60.9038435,62.0858974 59.1034675,57.224359 C58.5033422,55.8064103 56.4029035,56.1102564 56.3028826,57.7307692 Z" id="Path"></path>
            <path d="M22.5958432,45.6782051 C21.2955716,46.3871795 20.5954254,47.9064103 20.8954881,49.425641 C21.1955508,51.0461538 22.795885,52.1602564 24.3962192,52.0589744 C25.0963654,52.0589744 25.7965116,51.7551282 26.2966161,51.2487179 C26.5966787,51.0461538 26.8967414,50.7423077 27.0967832,50.3371795 C27.8969503,49.0205128 27.5968876,47.4 26.5966787,46.2858974 C25.5964699,45.2730769 23.9961356,44.8679487 22.5958432,45.6782051 Z" id="Path"></path>
            <path d="M59.3035093,46.6910256 C59.3035093,46.7923077 59.2034884,46.8935897 59.2034884,46.8935897 C58.4033213,48.0076923 58.3033004,49.7294872 59.4035301,50.8435897 C61.1038853,52.5653846 64.2045328,51.6538462 64.6046163,49.2230769 C64.8046581,47.9064103 64.3045537,46.4884615 63.0042821,45.8807692 C61.8040315,45.2730769 60.0036555,45.374359 59.3035093,46.6910256 Z" id="Path"></path>
        </g>
    </g>
</svg>