<?xml version="1.0" encoding="UTF-8"?>
<svg width="91px" height="80px" viewBox="0 0 91 80" version="1.1" xmlns="http://www.w3.org/2000/svg" xmlns:xlink="http://www.w3.org/1999/xlink">
    <!-- Generator: Sketch 52.6 (67491) - http://www.bohemiancoding.com/sketch -->
    <title>ram</title>
    <desc>Created with Sketch.</desc>
    <g id="Page-1" stroke="none" stroke-width="1" fill="none" fill-rule="evenodd">
        <g id="ram" fill="#000000">
            <path d="M78.5633333,6.57419355 C72.0922222,4.04193548 62.9922222,7.38451613 61.3744444,14.0696774 C59.5544444,13.2593548 57.6333333,12.5503226 55.6111111,12.1451613 C55.7122222,12.1451613 55.7122222,12.1451613 55.8133333,12.043871 C57.33,11.5374194 59.15,11.436129 60.5655556,10.6258065 C61.2733333,10.2206452 61.3744444,8.90387097 60.5655556,8.49870968 C60.4644444,8.09354839 60.2622222,7.78967742 59.7566667,7.6883871 C51.6677778,5.86516129 43.0733333,5.96645161 35.0855556,8.19483871 C34.3777778,5.15612903 31.6477778,2.52258065 28.8166667,1.30709677 C24.2666667,-0.718709677 18.9077778,0.294193548 14.6611111,2.52258065 C4.44888889,7.78967742 -1.21333333,19.8432258 0.505555556,30.883871 C1.11222222,34.6316129 2.83111111,38.0754839 5.35888889,40.7090323 C4.34777778,48.8122581 6.16777778,57.2193548 11.3244444,64.2083871 C21.6377778,77.983871 39.8377778,81.5290323 56.0155556,78.9967742 C63.0933333,77.8825806 70.5755556,75.4516129 75.8333333,70.3870968 C81.7988889,64.6135484 83.4166667,56.2064516 82.7088889,48.2045161 C82.6077778,47.1916129 82.5066667,46.0774194 82.3044444,44.9632258 C86.6522222,42.1270968 89.9888889,36.4548387 90.5955556,31.8967742 C91.8088889,22.2741935 88.0677778,10.3219355 78.5633333,6.57419355 Z M87.36,31.0864516 C86.9555556,34.9354839 85.7422222,38.5819355 82.4055556,40.9116129 C78.26,43.8490323 72.1933333,44.3554839 70.98,37.8729032 C69.8677778,32.3019355 71.1822222,26.3258065 73.6088889,21.16 C74.62,24.1987097 75.9344444,27.0348387 77.9566667,29.6683871 C78.8666667,30.9851613 80.7877778,29.5670968 79.6755556,28.3516129 C76.9455556,25.1103226 75.3277778,21.6664516 75.3277778,17.4122581 C75.3277778,15.9941935 73.4066667,15.4877419 72.6988889,16.7032258 C68.9577778,23.1858065 62.8911111,39.8987097 71.3844444,45.1658065 C73.8111111,46.6851613 76.3388889,46.9890323 78.5633333,46.3812903 C78.8666667,49.116129 78.9677778,51.9522581 78.6644444,54.5858065 C76.44,75.5529032 49.2411111,78.8954839 32.8611111,74.4387097 C17.9977778,70.3870968 7.78555556,57.4219355 8.39222222,43.14 C12.6388889,45.8748387 17.9977778,46.28 23.0533333,42.5322581 C32.0522222,35.8470968 31.2433333,21.7677419 24.0644444,14.1709677 C23.4577778,13.5632258 22.2444444,13.8670968 22.0422222,14.6774194 C20.7277778,19.9445161 16.0766667,22.4767742 11.0211111,22.4767742 C9.1,22.4767742 9.1,25.3129032 11.0211111,25.4141935 C16.8855556,25.7180645 21.4355556,22.1729032 23.66,17.1083871 C28.5133333,22.9832258 27.4011111,33.3148387 21.7388889,38.4806452 C12.74,46.4825806 4.34777778,35.7458065 4.34777778,26.8322581 C4.34777778,20.1470968 7.28,13.4619355 12.1333333,9.00516129 C15.0655556,6.27032258 19.11,4.24451613 23.1544444,4.04193548 C28.9177778,3.83935484 31.0411111,6.97935484 32.9622222,11.74 C33.3666667,12.6516129 34.4788889,12.6516129 34.7822222,11.8412903 C41.0511111,9.91677419 47.8255556,9.30903226 54.3977778,9.71419355 C53.0833333,10.2206452 51.6677778,10.8283871 50.8588889,11.8412903 C50.6566667,12.043871 50.5555556,12.2464516 50.4544444,12.4490323 C50.2522222,13.1580645 50.5555556,13.9683871 51.3644444,14.2722581 C55.0044444,15.4877419 58.3411111,16.9058065 61.4755556,18.6277419 C61.4755556,18.7290323 61.4755556,18.8303226 61.5766667,18.8303226 C61.9811111,20.0458065 63.7,19.7419355 63.7,18.5264516 C64.3066667,10.0180645 72.5977778,6.77677419 79.5744444,11.2335484 C85.54,15.4877419 88.0677778,24.1987097 87.36,31.0864516 Z" id="Shape" fill-rule="nonzero"></path>
            <path d="M49.3422222,60.8658065 C48.9377778,60.4606452 48.6344444,60.0554839 48.3311111,59.5490323 C48.4322222,59.4477419 48.5333333,59.3464516 48.6344444,59.2451613 C49.5444444,58.2322581 50.6566667,56.8141935 50.96,55.4974194 C51.2633333,54.1806452 49.8477778,52.7625806 48.5333333,53.6741935 C47.8255556,54.1806452 47.4211111,54.6870968 46.9155556,55.396129 C46.7133333,55.7 46.5111111,56.003871 46.3088889,56.3077419 C46.0055556,55.9025806 45.5,55.396129 45.3988889,55.2948387 C44.8933333,54.5858065 44.3877778,53.9780645 43.68,53.3703226 C42.8711111,52.6612903 41.5566667,53.3703226 41.86,54.3832258 C42.1633333,55.7 42.8711111,56.8141935 43.4777778,58.0296774 C43.7811111,58.536129 44.0844444,59.143871 44.4888889,59.5490323 C44.0844444,60.2580645 43.68,60.8658065 43.0733333,61.3722581 C41.7588889,62.283871 39.9388889,61.8787097 38.8266667,62.9929032 C38.3211111,63.4993548 38.1188889,64.3096774 38.6244444,64.9174194 C40.2422222,67.1458065 43.68,65.8290323 45.3988889,64.4109677 C45.7022222,64.1070968 46.1066667,63.7019355 46.41,63.2967742 C46.41,63.2967742 46.5111111,63.3980645 46.5111111,63.3980645 C47.6233333,64.7148387 50.05,66.3354839 51.9711111,65.6264516 C52.9822222,65.2212903 53.8922222,63.6006452 52.78,62.6890323 C51.6677778,61.8787097 50.3533333,61.7774194 49.3422222,60.8658065 Z" id="Path"></path>
            <path d="M29.8277778,47.9006452 C29.2211111,47.4954839 28.5133333,47.4954839 27.8055556,47.6980645 C25.6822222,47.6980645 23.9633333,49.8251613 24.6711111,51.9522581 C25.48,54.3832258 28.6144444,55.1935484 30.4344444,53.2690323 C31.3444444,52.3574194 31.6477778,50.9393548 31.1422222,49.723871 C30.94,48.9135484 30.4344444,48.3058065 29.8277778,47.9006452 Z" id="Path"></path>
            <path d="M63.8011111,49.723871 C61.2733333,48.5083871 58.3411111,50.9393548 58.8466667,53.6741935 C59.3522222,56.1051613 62.2844444,57.2193548 64.4077778,56.003871 C65.52,55.396129 66.2277778,53.9780645 66.1266667,52.6612903 C66.1266667,51.8509677 65.8233333,51.0406452 65.3177778,50.4329032 C64.9133333,50.0277419 64.4077778,49.8251613 63.8011111,49.723871 Z" id="Path"></path>
        </g>
    </g>
</svg>