<?xml version="1.0" encoding="UTF-8"?>
<svg width="78px" height="78px" viewBox="0 0 78 78" version="1.1" xmlns="http://www.w3.org/2000/svg" xmlns:xlink="http://www.w3.org/1999/xlink">
    <!-- Generator: Sketch 52.6 (67491) - http://www.bohemiancoding.com/sketch -->
    <title>rocket</title>
    <desc>Created with Sketch.</desc>
    <g id="Page-1" stroke="none" stroke-width="1" fill="none" fill-rule="evenodd">
        <g id="rocket" fill="#000000" fill-rule="nonzero">
            <g id="Group">
                <path d="M75.9,3.9 C75.7283986,3.49751649 75.4919245,3.12591426 75.2,2.8 L75.1,2.8 L74.3,2.2 C68.3,-1.5 46.4,2.1 31.7,16.7 C29.7359914,18.6536722 27.93031,20.7603004 26.3,23 L15.3,25.8 C11.712111,26.7003533 8.47417162,28.6500802 6,31.4 L1.9,36 C0.678169,37.3753477 0.551989206,39.4067398 1.59422555,40.9227199 C2.6364619,42.4387001 4.57833001,43.0483092 6.3,42.4 L9.1,41.3 C11.2924779,40.4739008 13.7572156,40.8530912 15.6,42.3 L17.9,44.1 L33.8,60.1 L35.6,62.5 C37.0469088,64.3427844 37.4260992,66.8075221 36.6,69 L35.5,71.8 C34.8196586,73.5240635 35.4467023,75.4888001 37,76.5 C38.4992948,77.5694748 40.5423703,77.4443886 41.9,76.2 L46.4,72.1 C49.1669014,69.5989974 51.1180072,66.3239268 52,62.7 L54.8,51.7 C57.073972,50.0736135 59.2141371,48.2678492 61.2,46.3 C75.8,31.7 79.4,10 75.9,3.9 Z M7.7,37.6 L4.9,38.7 L9,34.2 C10.9415154,32.0398791 13.4831827,30.5079153 16.3,29.8 L23.1,28.1 C21.0450169,31.6825966 19.3692855,35.4697496 18.1,39.4 L18,39.4 C15.1135548,37.0490975 11.2126896,36.367393 7.7,37.6 Z M48.2,61.8 C47.4920847,64.6168173 45.9601209,67.1584846 43.8,69.1 L39.3,73.2 L40.4,70.4 C41.7161363,66.9384303 41.1487548,63.0424108 38.9,60.1 L38.7,59.9 C42.6305104,58.631396 46.4177329,56.9556339 50,54.9 L48.2,61.8 Z M58.5,43.4 C52.1776112,49.5838366 44.4083041,54.0872845 35.9,56.5 L21.5,42 C23.8991071,33.5374386 28.3667167,25.8050374 34.5,19.5 C48.6,5.4 68.5,3.2 72.2,5.6 L72.4,5.6 C74.5,9.4 72.8,29.1 58.5,43.4 Z" id="Shape"></path>
                <path d="M7,71 L7.4,71.3 C8.70500359,72.0458924 10.1997852,72.393516 11.7,72.3 L14.6,72 C17.955761,71.4415118 21.0609233,69.871486 23.5,67.5 C24.7607559,66.2341288 25.8683544,64.8244579 26.8,63.3 C27.249867,62.523315 27.127209,61.5420505 26.5,60.9 L17.1,51.3 C16.4824285,50.6394183 15.4984319,50.4754189 14.7,50.9 C13.1311178,51.8504871 11.6866754,52.9926044 10.4,54.3 C5.5,59.2 4.7,67.3 6.5,70.2 L7,70.8 L7,71 Z M13.2,57.2 L15.4,55.4 L22.5,62.7 L20.7,64.8 C17,68.5 11.2,68.7 9.9,68.1 C8.6,67.5 9.5,61 13.2,57.3 L13.2,57.2 Z" id="Shape"></path>
                <path d="M51.2,15.4 C48.1110012,18.5366668 48.1367428,23.5796809 51.2576015,26.68465 C54.3784601,29.7896192 59.4215399,29.7896192 62.5423985,26.68465 C65.6632572,23.5796809 65.6889988,18.5366668 62.6,15.4 C61.096341,13.8731372 59.0429653,13.0133769 56.9,13.0133769 C54.7570347,13.0133769 52.703659,13.8731372 51.2,15.4 Z M59.7,23.9 C58.1316666,25.4444994 55.6101596,25.4316286 54.057675,23.8711993 C52.5051904,22.3107699 52.5051904,19.7892301 54.057675,18.2288007 C55.6101596,16.6683714 58.1316666,16.6555006 59.7,18.2 C60.4634314,18.9518295 60.8933116,19.9785173 60.8933116,21.05 C60.8933116,22.1214827 60.4634314,23.1481705 59.7,23.9 Z" id="Shape"></path>
            </g>
        </g>
    </g>
</svg>