<?xml version="1.0" encoding="UTF-8"?>
<svg width="79px" height="83px" viewBox="0 0 79 83" version="1.1" xmlns="http://www.w3.org/2000/svg" xmlns:xlink="http://www.w3.org/1999/xlink">
    <!-- Generator: Sketch 52.6 (67491) - http://www.bohemiancoding.com/sketch -->
    <title>sleeping</title>
    <desc>Created with Sketch.</desc>
    <g id="Page-1" stroke="none" stroke-width="1" fill="none" fill-rule="evenodd">
        <g id="sleeping" fill="#000000">
            <path d="M40.3464286,36.1722973 L40.0642857,36.4527027 L28.4964286,36.4527027 C26.5214286,36.4527027 25.1107143,37.8547297 25.1107143,39.8175676 C25.1107143,40.097973 25.1107143,40.3783784 25.1107143,40.3783784 L17.775,40.3783784 L7.05357143,21.8716216 L4.79642857,23.2736486 L16.3642857,43.1824324 L39.2178571,43.1824324 L44.8607143,43.1824324 L51.35,34.4898649 L54.1714286,47.1081081 C54.1714286,49.3513514 51.9142857,49.9121622 51.9142857,49.9121622 L44.5785714,52.1554054 L44.5785714,45.4256757 L37.8071429,45.4256757 L6.77142857,45.4256757 L0,45.4256757 C0,57.7635135 0,70.3817568 0,83 L6.77142857,83 C6.77142857,81.3175676 6.77142857,88.0472973 6.77142857,52.1554054 L37.8071429,52.1554054 L37.8071429,54.1182432 C36.6785714,54.1182432 35.8321429,54.9594595 34.9857143,55.8006757 L20.3142857,76.2702703 C20.0321429,76.8310811 19.75,77.6722973 19.75,78.7939189 C19.75,81.0371622 21.4428571,83 23.9821429,83 C25.3928571,83 26.8035714,82.1587838 27.3678571,81.3175676 L37.8071429,66.7364865 L37.8071429,83 L44.5785714,83 L44.5785714,61.6891892 L47.9642857,61.1283784 L47.9642857,64.2128378 L47.9642857,83 L53.325,83 L53.325,64.2128378 L70.5357143,64.2128378 L70.5357143,83 L75.6142857,83 L75.6142857,64.2128378 L75.6142857,63.3716216 L79,30.8445946 L73.9214286,30.8445946 L70.8178571,58.8851351 L63.7642857,58.8851351 C66.0214286,58.8851351 67.9964286,57.4831081 69.125,55.5202703 C69.4071429,54.9594595 69.6892857,54.1182432 69.6892857,53.277027 L66.3035714,32.8074324 C65.7392857,28.6013514 61.7892857,25.2364865 57.275,25.2364865 L53.325,25.2364865 C53.325,25.2364865 53.0428571,25.2364865 53.0428571,25.2364865 C49.6571429,25.2364865 47.6821429,27.7601351 45.7071429,30.0033784 L40.3464286,36.1722973 Z M45.7071429,0 L54.4535714,2.80405405 L53.6071429,5.88851351 L47.1178571,8.69256757 L52.1964286,10.0945946 L51.35,12.8986486 L42.6035714,10.0945946 L43.45,7.01013514 L50.2214286,4.20608108 L44.8607143,2.52364865 L45.7071429,0 Z M54.7357143,10.6554054 L61.7892857,8.13175676 L62.6357143,10.6554054 L59.8142857,15.7027027 L64.0464286,14.3006757 L64.8928571,16.2635135 L57.8392857,19.0675676 L56.7107143,16.5439189 L59.5321429,11.2162162 L55.3,12.8986486 L54.7357143,10.6554054 Z M48.8107143,15.7027027 L54.4535714,15.7027027 L54.4535714,17.6655405 L51.0678571,20.75 L54.4535714,20.75 L54.4535714,22.4324324 L48.8107143,22.4324324 L48.8107143,20.4695946 L52.1964286,17.3851351 L48.8107143,17.3851351 L48.8107143,15.7027027 Z M47.6821429,25.5168919 C46.2714286,22.7128378 43.1678571,20.75 40.0642857,20.75 C35.2678571,20.75 31.3178571,24.6756757 31.3178571,29.4425676 C31.3178571,31.4054054 32.1642857,33.3682432 33.2928571,34.7702703 L39.5,34.7702703 L47.6821429,25.5168919 Z" id="Shape"></path>
        </g>
    </g>
</svg>