<?xml version="1.0" encoding="UTF-8"?>
<svg width="87px" height="66px" viewBox="0 0 87 66" version="1.1" xmlns="http://www.w3.org/2000/svg" xmlns:xlink="http://www.w3.org/1999/xlink">
    <!-- Generator: Sketch 52.6 (67491) - http://www.bohemiancoding.com/sketch -->
    <title>turtle</title>
    <desc>Created with Sketch.</desc>
    <g id="Page-1" stroke="none" stroke-width="1" fill="none" fill-rule="evenodd">
        <g id="turtle" fill="#000000">
            <g id="Group">
                <path d="M54.318,28.132 L62.658,35.131 C62.658,35.131 66.034,36.867 68.119,35.479 C70.204,34.088 72.09,32.159 72.09,32.159 C72.09,32.159 72.871,30.175 72.605,28.533 L70.949,22.072 C70.949,22.072 69.807,20.24 67.375,20.488 C64.942,20.737 59.682,21.319 59.682,21.319 C59.682,21.319 56.852,21.978 55.163,24.013 C55.162,24.011 52.433,26.294 54.318,28.132 Z" id="Path"></path>
                <path d="M50.694,24.31 L53.655,22.374 C54.726,21.231 53.028,19.473 53.028,19.473 L48.162,14.382 C46.257,12.902 45.681,16.715 45.681,16.715 C45.681,16.715 45.88,18.254 47.518,21.679 C49.156,25.103 50.694,24.31 50.694,24.31 Z" id="Path"></path>
                <path d="M67.723,38.357 C66.327,39.818 68.517,40.142 68.517,40.142 C68.517,40.142 73.53,40.591 75.218,40.64 C76.906,40.691 76.409,38.257 76.409,38.257 L76.012,34.286 C75.467,33.045 73.679,33.778 73.679,33.778 L70.254,36.014 C70.254,36.016 68.476,37.566 67.723,38.357 Z" id="Path"></path>
                <path d="M79.099,47.074 C79.725,46.928 80.291,46.754 80.778,46.547 L80.777,46.545 C81.972,46.098 82.533,44.715 82.109,43.217 C81.778,42.043 80.966,41.248 79.964,41.014 C80.297,32.556 79.892,24.374 75.544,20.556 L64.075,9.367 C59.946,5.297 56.741,3.59 43.391,4.335 C39.745,4.535 37.76,4.807 36.326,6.274 C35.205,3.924 33.362,1.615 29.899,1.184 C25.668,0.262 15.392,1.252 12.675,1.7 C6.196,2.86 4.597,7.187 3.835,11.69 L3.824,11.782 C3.749,12.741 3.807,13.71 3.865,14.645 C4.04,17.514 4.031,19.073 1.879,19.903 C0.934,20.29 0.077,20.949 0.077,22.071 L0.077,22.657 L0.578,22.959 C1.997,23.816 4.043,24.126 6.67,24.186 C7.272,27.028 8.641,28.731 10.937,29.506 C12.152,29.917 13.561,30.049 15.185,30.049 C16.503,30.049 17.963,29.962 19.575,29.865 C20.745,29.796 21.978,29.722 23.279,29.674 C21.747,32.126 20.446,35.913 22.256,40.596 C20.747,42.655 19.692,44.491 20.059,46.131 C20.182,46.682 20.454,47.16 20.869,47.561 C18.217,51.633 16.169,56.207 16.88,62.575 L16.943,63.145 L17.464,63.395 C18.655,63.963 21.687,64.231 24.943,64.231 C29.084,64.231 33.588,63.797 35.121,63.008 L35.453,62.836 L35.599,62.494 C36.267,60.924 36.128,59.605 35.979,58.209 C35.879,57.264 35.77,56.221 35.871,54.885 C36.679,55.166 37.534,55.401 38.433,55.596 C38.094,57.008 37.998,58.856 38.217,60.469 L38.244,60.672 L38.346,60.848 C38.692,61.448 39.401,61.869 40.579,62.176 C41.928,62.53 43.897,62.721 46.038,62.721 C46.537,62.721 47.047,62.711 47.559,62.688 C48.742,62.639 50.596,62.5 52.107,62.118 C52.141,62.544 52.195,62.966 52.272,63.378 L52.362,63.849 L52.78,64.087 C54.13,64.853 57.726,65.196 61.676,65.196 C65.706,65.196 70.102,64.837 72.842,64.194 L73.871,63.952 L73.61,62.929 C73.553,62.706 73.496,62.491 73.434,62.281 C75.073,62.51 76.876,62.621 78.616,62.621 C81.74,62.621 84.655,62.264 86.023,61.588 L86.562,61.322 L86.599,60.72 C86.876,56.127 83.927,49.957 79.099,47.074 Z M79.117,43.039 C79.781,42.883 80.034,43.506 80.112,43.781 C80.241,44.238 80.128,44.58 80.043,44.607 L79.968,44.638 C77.082,45.859 70.635,45.837 65.29,44.583 C50.806,41.036 48.269,34.933 45.584,28.471 C44.245,25.248 42.861,21.92 39.945,18.986 C39.835,18.07 39.679,17.109 39.471,16.102 C42.423,17.279 44.095,20.775 46.135,25.049 C49.499,32.095 53.686,40.864 66.144,43.048 C68.303,43.433 70.41,43.626 72.538,43.626 C74.664,43.626 76.812,43.433 79.058,43.05 L79.117,43.039 Z M39.516,6.845 L38.96,9.892 C38.96,9.892 38.752,10.658 39.362,10.955 C39.972,11.252 45.68,12.295 45.68,12.295 C45.68,12.295 47.319,12.643 47.963,11.898 C48.442,11.346 51.2,8.046 52.595,6.376 C53.691,6.465 54.647,6.596 55.493,6.769 L51.339,11.501 C51.339,11.501 49.9,12.693 50.411,13.477 C50.855,14.157 55.112,18.452 55.112,18.452 C55.112,18.452 56.6,19.748 57.991,19.473 C59.094,19.254 66.337,17.901 69.286,17.351 L74.098,22.044 C73.651,22.56 73.178,23.288 73.232,24.012 C73.332,25.352 73.926,29.472 74.374,30.266 C74.82,31.06 76.352,32.367 76.927,32.533 C77.145,32.596 77.484,32.657 77.819,32.709 C77.979,34.987 78.014,37.755 77.882,41.14 C73.952,41.73 70.317,41.687 66.508,41.007 L66.506,41.007 C55.098,39.009 51.331,31.118 48.008,24.157 C45.596,19.103 43.493,14.708 38.92,13.779 C38.559,12.436 38.111,11.026 37.563,9.553 C37.458,9.225 37.343,8.872 37.218,8.504 C37.726,7.635 38.253,7.148 39.516,6.845 Z M25.279,40.047 C25.844,39.313 26.418,38.57 26.953,37.824 C26.862,38.263 26.783,38.695 26.718,39.121 C25.717,40.752 24.582,42.318 23.482,43.832 C23.021,44.467 22.558,45.103 22.103,45.75 C22.094,45.721 22.089,45.699 22.084,45.68 C21.824,44.518 23.66,42.141 25.279,40.047 Z M26.671,34.424 C25.959,35.752 24.865,37.186 23.787,38.584 C22.89,35.088 24.032,32.279 25.244,30.459 C25.507,30.749 25.806,31.04 26.126,31.332 C26.077,32.554 26.372,33.541 26.671,34.424 Z M33.833,61.303 C32.58,61.731 29.58,62.065 26.207,62.133 C22.723,62.205 20.084,61.983 18.88,61.692 C18.297,54.501 21.633,49.907 25.16,45.053 C25.607,44.436 26.061,43.811 26.51,43.176 C26.68,45.891 27.527,48.25 29.05,50.223 C30.271,51.803 31.89,53.082 33.869,54.053 C33.651,55.908 33.798,57.291 33.918,58.428 C34.04,59.584 34.126,60.395 33.833,61.303 Z M52.148,58.053 C52.113,58.69 52.078,59.334 52.061,59.975 C50.812,60.375 48.49,60.645 46.057,60.645 C46.031,60.645 46.004,60.645 45.979,60.645 C42.543,60.637 40.748,60.159 40.234,59.858 C40.103,58.544 40.207,57.01 40.481,55.956 C41.898,56.149 43.407,56.247 45.004,56.247 C45.339,56.251 45.667,56.263 46.014,56.278 C46.445,56.294 46.891,56.311 47.375,56.311 C48.614,56.311 50.104,56.194 52.239,55.663 C52.236,56.428 52.193,57.232 52.148,58.053 Z M54.227,62.459 C54.058,61.133 54.141,59.627 54.22,58.166 C54.371,55.398 54.529,52.537 53.067,50.387 L52.011,51.104 C52.399,51.674 52.658,53.196 52.184,54.057 C49.282,54.823 47.758,54.762 46.235,54.703 C45.888,54.689 45.531,54.676 45.155,54.672 C38.517,54.672 33.43,52.818 30.832,49.455 C28.582,46.541 27.966,42.019 29.277,37.004 L29.311,36.877 L29.311,36.744 C29.311,35.717 29.014,34.853 28.727,34.019 C28.646,33.785 28.567,33.552 28.494,33.319 C29.682,33.562 30.497,34.332 30.63,34.615 C30.63,34.613 31.148,36.209 32.355,36.015 L32.148,34.667 C32.148,33.665 31.151,32.805 29.241,31.248 C28.643,30.76 27.379,29.902 26.793,29.355 C28.776,29.355 30.394,28.723 31.299,28.377 L31.685,27.712 C27.705,27.463 22.465,27.613 19.452,27.793 C12.577,28.204 9.793,28.146 8.796,24.187 C10.297,24.162 11.948,24.09 13.745,24.012 C16.358,23.9 19.321,23.77 22.435,23.77 C24.974,23.77 28.26,23.118 29.984,20.151 L29.439,19.951 C28.483,21.596 25.464,22.2 22.439,22.2 C19.279,22.2 16.408,22.257 13.774,22.371 C9.183,22.571 5.141,23.028 2.037,21.778 C5.368,20.296 6.093,17.07 5.937,14.517 C5.885,13.669 5.832,12.792 5.89,11.989 C6.786,6.751 8.727,4.514 13.027,3.743 C15.557,3.328 25.637,2.352 29.499,3.22 L29.604,3.238 C33.204,3.663 34.492,6.779 35.595,10.21 L35.61,10.255 C39.155,19.757 39.272,26.492 38.133,28.629 L38.867,29.021 C39.598,27.648 40.125,25.478 40.155,22.633 C42.184,25.744 42.157,30.201 42.146,31.877 C42.146,31.983 42.145,32.078 42.145,32.16 L44.22,32.16 C44.22,32.081 44.22,31.992 44.221,31.89 C44.223,31.546 44.225,31.097 44.213,30.574 C46.859,36.808 50.304,43.054 64.802,46.601 L64.812,46.603 C67.677,47.277 70.795,47.611 73.619,47.611 C73.844,47.611 74.064,47.609 74.285,47.605 C72.171,48.943 68.556,50.392 66.238,50.912 C65.247,50.35 64.591,48.83 64.255,47.16 L62.969,47.236 C64.057,52.646 66.106,54.953 67.914,56.988 C69.274,58.519 70.472,59.867 71.298,62.398 C65.829,63.4 56.811,63.318 54.227,62.459 Z M72.596,60.045 C71.695,58.119 70.567,56.848 69.465,55.607 C68.687,54.732 67.927,53.875 67.237,52.793 C68.758,52.387 70.706,51.693 72.392,50.938 C74.413,50.03 75.896,49.131 76.832,48.249 C81.344,50.169 84.464,55.687 84.54,59.937 C82.371,60.574 76.866,60.846 72.596,60.045 Z" id="Shape" fill-rule="nonzero"></path>
                <path d="M11.582,12.694 C11.106,12.694 10.72,13.404 10.72,14.282 C10.72,15.648 11.106,15.869 11.582,15.869 C12.058,15.869 12.444,15.869 12.444,14.282 C12.444,13.404 12.058,12.694 11.582,12.694 Z" id="Path"></path>
                <path d="M22.364,12.694 C21.888,12.694 21.502,13.404 21.502,14.282 C21.502,15.648 21.888,15.869 22.364,15.869 C22.84,15.869 23.2260019,15.869 23.226,14.282 C23.227,13.404 22.84,12.694 22.364,12.694 Z" id="Path"></path>
            </g>
        </g>
    </g>
</svg>